<?xml version="1.0" ?><svg id="Layer_1_1_" style="enable-background:new 0 0 64 64;" version="1.1" viewBox="0 0 64 64" xml:space="preserve" xmlns="http://www.w3.org/2000/svg" xmlns:xlink="http://www.w3.org/1999/xlink"><g><g><path d="M-177-164v-9c0-9.389,7.611-17,17-17h0    c9.389,0,17,7.611,17,17v9" style="fill:none;stroke:#33323F;stroke-width:2;stroke-miterlimit:10;"/><path d="M-160-144c5,0,6-4,6-4l6.011,0.925    c4.277,0.658,7.807,3.694,9.098,7.824L-136-130h-24h-24l2.891-9.251c1.291-4.131,4.82-7.166,9.098-7.824L-166-148    C-166-148-165-144-160-144z" style="fill:none;stroke:#33323F;stroke-width:2;stroke-miterlimit:10;"/><line style="fill:none;stroke:#33323F;stroke-width:2;stroke-miterlimit:10;" x1="-173" x2="-174" y1="-138" y2="-130"/><line style="fill:none;stroke:#33323F;stroke-width:2;stroke-miterlimit:10;" x1="-146" x2="-147" y1="-130" y2="-138"/><line style="fill:none;stroke:#33323F;stroke-width:2;stroke-miterlimit:10;" x1="-166" x2="-166" y1="-148" y2="-150"/><line style="fill:none;stroke:#33323F;stroke-width:2;stroke-miterlimit:10;" x1="-154" x2="-154" y1="-148" y2="-150"/><path d="M-152-175h-21v13c0,7.18,5.82,13,13,13h0    c7.18,0,13-5.82,13-13v-13h-3" style="fill:none;stroke:#33323F;stroke-width:2;stroke-miterlimit:10;"/><path d="M-147-168L-147-168c2.209,0,4,1.791,4,4l0,0    c0,2.209-1.791,4-4,4l0,0" style="fill:none;stroke:#33323F;stroke-width:2;stroke-miterlimit:10;"/><path d="M-173-168L-173-168c-2.209,0-4,1.791-4,4l0,0    c0,2.209,1.791,4,4,4l0,0" style="fill:none;stroke:#33323F;stroke-width:2;stroke-miterlimit:10;"/><circle cx="-166.5" cy="-167.5" r="1.5" style="fill:#33323F;"/><circle cx="-153.5" cy="-167.5" r="1.5" style="fill:#33323F;"/><path d="M-153-162c0,3.866-3.134,7-7,7s-7-3.134-7-7" style="fill:none;stroke:#33323F;stroke-width:2;stroke-miterlimit:10;"/><path d="M-167-144" style="fill:none;stroke:#EFE7E4;stroke-width:2;stroke-miterlimit:10;"/></g><g><path d="M-60.571-145L-64-141l-6-7l-6.011,0.925    c-4.277,0.658-7.807,3.694-9.098,7.824L-88-130h24h24l-2.891-9.251c-1.291-4.131-4.82-7.166-9.098-7.824L-58-148l-1.714,2" style="fill:none;stroke:#33323F;stroke-width:2;stroke-miterlimit:10;"/><line style="fill:none;stroke:#33323F;stroke-width:2;stroke-miterlimit:10;" x1="-77" x2="-78" y1="-138" y2="-130"/><line style="fill:none;stroke:#33323F;stroke-width:2;stroke-miterlimit:10;" x1="-51" x2="-50" y1="-138" y2="-130"/><line style="fill:none;stroke:#33323F;stroke-width:2;stroke-miterlimit:10;" x1="-70" x2="-70" y1="-148" y2="-150"/><line style="fill:none;stroke:#33323F;stroke-width:2;stroke-miterlimit:10;" x1="-58" x2="-58" y1="-148" y2="-150"/><path d="M-51-168L-51-168c2.209,0,4,1.791,4,4l0,0    c0,2.209-1.791,4-4,4h0" style="fill:none;stroke:#33323F;stroke-width:2;stroke-miterlimit:10;"/><path d="M-77-168L-77-168c-2.209,0-4,1.791-4,4l0,0    c0,2.209,1.791,4,4,4h0" style="fill:none;stroke:#33323F;stroke-width:2;stroke-miterlimit:10;"/><circle cx="-70.5" cy="-167.5" r="1.5" style="fill:#33323F;"/><circle cx="-57.5" cy="-167.5" r="1.5" style="fill:#33323F;"/><path d="M-54.58-153.059    c1.808,0.739,3.961,0.376,5.429-1.092c1.089-1.089,1.548-2.554,1.422-3.977c1.363-0.428,2.541-1.413,3.13-2.836    c0.589-1.423,0.453-2.952-0.208-4.219C-43.711-166.099-43-167.46-43-169s-0.711-2.901-1.807-3.818    c0.661-1.267,0.797-2.796,0.208-4.219c-0.589-1.423-1.767-2.408-3.13-2.836c0.126-1.423-0.333-2.888-1.422-3.977    s-2.554-1.548-3.977-1.422c-0.428-1.363-1.413-2.541-2.836-3.13c-1.423-0.589-2.952-0.453-4.219,0.208    C-61.099-189.289-62.46-190-64-190s-2.901,0.711-3.818,1.807c-1.267-0.661-2.796-0.798-4.219-0.208    c-1.423,0.589-2.408,1.767-2.836,3.13c-1.423-0.126-2.888,0.333-3.977,1.422s-1.548,2.554-1.422,3.977    c-1.363,0.428-2.541,1.413-3.13,2.836c-0.589,1.423-0.453,2.952,0.208,4.219C-84.289-171.901-85-170.54-85-169    s0.711,2.901,1.807,3.818c-0.661,1.266-0.797,2.795-0.208,4.219c0.589,1.423,1.767,2.408,3.13,2.836    c-0.126,1.423,0.333,2.888,1.422,3.977c1.468,1.468,3.621,1.831,5.429,1.092" style="fill:none;stroke:#33323F;stroke-width:2;stroke-miterlimit:10;"/><path d="M-51-170.141c-0.321,0.083-0.653,0.141-1,0.141    c-1.746,0-3.215-1.126-3.761-2.685C-56.4-172.253-57.17-172-58-172c-1.462,0-2.727-0.792-3.425-1.963    C-62.122-173.371-63.014-173-64-173s-1.878-0.371-2.575-0.963C-67.273-172.792-68.538-172-70-172c-0.83,0-1.6-0.253-2.239-0.685    C-72.785-171.126-74.254-170-76-170c-0.347,0-0.679-0.058-1-0.141V-170v8c0,7.18,5.82,13,13,13h0c7.18,0,13-5.82,13-13v-8    V-170.141z" style="fill:none;stroke:#33323F;stroke-width:2;stroke-miterlimit:10;"/><line style="fill:none;stroke:#33323F;stroke-width:2;stroke-miterlimit:10;" x1="-54" x2="-62" y1="-135" y2="-135"/><line style="fill:none;stroke:#33323F;stroke-width:2;stroke-miterlimit:10;" x1="-68" x2="-60" y1="-157" y2="-157"/></g><g><path d="M32-144c5,0,6-4,6-4l6.011,0.925    c4.277,0.658,7.807,3.694,9.098,7.824L56-130H32H8l2.891-9.251c1.291-4.131,4.82-7.166,9.098-7.824L26-148C26-148,27-144,32-144z" style="fill:none;stroke:#33323F;stroke-width:2;stroke-miterlimit:10;"/><line style="fill:none;stroke:#33323F;stroke-width:2;stroke-miterlimit:10;" x1="19" x2="18" y1="-138" y2="-130"/><line style="fill:none;stroke:#33323F;stroke-width:2;stroke-miterlimit:10;" x1="46" x2="45" y1="-130" y2="-138"/><line style="fill:none;stroke:#33323F;stroke-width:2;stroke-miterlimit:10;" x1="26" x2="26" y1="-148" y2="-151"/><line style="fill:none;stroke:#33323F;stroke-width:2;stroke-miterlimit:10;" x1="38" x2="38" y1="-148" y2="-151"/><path d="M45-168L45-168c2.209,0,4,1.791,4,4l0,0    c0,2.209-1.791,4-4,4h0" style="fill:none;stroke:#33323F;stroke-width:2;stroke-miterlimit:10;"/><path d="M19-168L19-168c-2.209,0-4,1.791-4,4l0,0    c0,2.209,1.791,4,4,4h0" style="fill:none;stroke:#33323F;stroke-width:2;stroke-miterlimit:10;"/><circle cx="25.5" cy="-167.5" r="1.5" style="fill:#33323F;"/><circle cx="38.5" cy="-167.5" r="1.5" style="fill:#33323F;"/><path d="M36.455-173.304    C35.202-173.121,33.722-173,32-173c-7,0-10-2-10-2l-3,7v6.843c0,5.085,3.405,9.367,8.056,10.711C27.316-149.054,28.533-148,30-148    c0.772,0,1.468-0.3,2-0.779C32.532-148.3,33.228-148,34-148c1.467,0,2.684-1.054,2.944-2.446    c4.651-1.345,8.056-5.627,8.056-10.711V-168l-3-7c0,0-1.172,0.781-3.76,1.367" style="fill:none;stroke:#33323F;stroke-width:2;stroke-miterlimit:10;"/><path d="M49-164v-10c0-7.732-6.268-14-14-14h0    c-1.657,0-3-1.343-3-3l0,0l0,0c0,1.657-1.343,3-3,3h0c-7.732,0-14,6.268-14,14v10" style="fill:none;stroke:#33323F;stroke-width:2;stroke-miterlimit:10;"/><path d="M28-159L28-159c0,1.105,0.895,2,2,2h4    c1.105,0,2-0.895,2-2l0,0" style="fill:none;stroke:#33323F;stroke-width:2;stroke-miterlimit:10;"/><path d="M39.102-135.529    C40.291-134.004,41-132.085,41-130" style="fill:none;stroke:#33323F;stroke-width:2;stroke-miterlimit:10;"/><path d="M23-130c0-4.971,4.029-9,9-9    c2.306,0,4.409,0.867,6.001,2.293" style="fill:none;stroke:#33323F;stroke-width:2;stroke-miterlimit:10;"/></g><g><path d="M111-164v-9c0-9.389,7.611-17,17-17h0    c9.389,0,17,7.611,17,17v9" style="fill:none;stroke:#33323F;stroke-width:2;stroke-miterlimit:10;"/><polyline points="138,-147 136,-135 128,-142 134,-148       " style="fill:none;stroke:#33323F;stroke-width:2;stroke-miterlimit:10;"/><line style="fill:none;stroke:#33323F;stroke-width:2;stroke-miterlimit:10;" x1="118" x2="118.5" y1="-147" y2="-144"/><polyline points="118.833,-142 120,-135 128,-142     122,-148   " style="fill:none;stroke:#33323F;stroke-width:2;stroke-miterlimit:10;"/><path d="M134-148l6.011,0.925    c4.277,0.658,7.807,3.694,9.098,7.824L152-130h-24h-24l2.891-9.251c1.291-4.131,4.82-7.166,9.098-7.824L122-148" style="fill:none;stroke:#33323F;stroke-width:2;stroke-miterlimit:10;"/><line style="fill:none;stroke:#33323F;stroke-width:2;stroke-miterlimit:10;" x1="115" x2="114" y1="-138" y2="-130"/><line style="fill:none;stroke:#33323F;stroke-width:2;stroke-miterlimit:10;" x1="142" x2="141" y1="-130" y2="-138"/><line style="fill:none;stroke:#33323F;stroke-width:2;stroke-miterlimit:10;" x1="122" x2="122" y1="-148" y2="-150"/><line style="fill:none;stroke:#33323F;stroke-width:2;stroke-miterlimit:10;" x1="134" x2="134" y1="-148" y2="-150"/><path d="M141-175c-2.761,0-5-2.239-5-5l0,0l0,0    c0,2.761-2.239,5-5,5h-8c-4.418,0-8,3.582-8,8v5c0,7.18,5.82,13,13,13h0c7.18,0,13-5.82,13-13L141-175L141-175z" style="fill:none;stroke:#33323F;stroke-width:2;stroke-miterlimit:10;"/><path d="M141-168L141-168c2.209,0,4,1.791,4,4l0,0    c0,2.209-1.791,4-4,4l0,0" style="fill:none;stroke:#33323F;stroke-width:2;stroke-miterlimit:10;"/><path d="M115-168L115-168c-2.209,0-4,1.791-4,4l0,0    c0,2.209,1.791,4,4,4h0" style="fill:none;stroke:#33323F;stroke-width:2;stroke-miterlimit:10;"/><circle cx="121.5" cy="-167.5" r="1.5" style="fill:#33323F;"/><circle cx="134.5" cy="-167.5" r="1.5" style="fill:#33323F;"/><polyline points="124,-130 125,-134 123,-137   " style="fill:none;stroke:#33323F;stroke-width:2;stroke-miterlimit:10;"/><polyline points="133,-137 131,-134 132,-130   " style="fill:none;stroke:#33323F;stroke-width:2;stroke-miterlimit:10;"/><path d="M124-159v0.997c0,1.106,0.897,2.003,2.003,2.003    h3.993c1.106,0,2.003-0.897,2.003-2.003V-159" style="fill:none;stroke:#33323F;stroke-width:2;stroke-miterlimit:10;"/></g><g><path d="M207-164v-9c0-3.457,1.032-6.672,2.804-9.356" style="fill:none;stroke:#33323F;stroke-width:2;stroke-miterlimit:10;"/><path d="M224-144c5,0,6-4,6-4l6.011,0.925    c4.277,0.658,7.807,3.694,9.098,7.824L248-130h-24h-24l2.891-9.251c1.291-4.131,4.82-7.166,9.098-7.824L218-148    C218-148,219-144,224-144z" style="fill:none;stroke:#33323F;stroke-width:2;stroke-miterlimit:10;"/><line style="fill:none;stroke:#33323F;stroke-width:2;stroke-miterlimit:10;" x1="211" x2="210" y1="-138" y2="-130"/><line style="fill:none;stroke:#33323F;stroke-width:2;stroke-miterlimit:10;" x1="238" x2="237" y1="-130" y2="-138"/><line style="fill:none;stroke:#33323F;stroke-width:2;stroke-miterlimit:10;" x1="218" x2="218" y1="-148" y2="-150"/><line style="fill:none;stroke:#33323F;stroke-width:2;stroke-miterlimit:10;" x1="230" x2="230" y1="-148" y2="-150"/><path d="M232-175h-15c-3.314,0-6,2.686-6,6v7    c0,7.18,5.82,13,13,13h0c7.18,0,13-5.82,13-13v-13h-3" style="fill:none;stroke:#33323F;stroke-width:2;stroke-miterlimit:10;"/><path d="M237-168L237-168c2.209,0,4,1.791,4,4l0,0    c0,2.209-1.791,4-4,4l0,0" style="fill:none;stroke:#33323F;stroke-width:2;stroke-miterlimit:10;"/><path d="M211-168L211-168c-2.209,0-4,1.791-4,4l0,0    c0,2.209,1.791,4,4,4l0,0" style="fill:none;stroke:#33323F;stroke-width:2;stroke-miterlimit:10;"/><circle cx="217.5" cy="-167.5" r="1.5" style="fill:#33323F;"/><circle cx="230.5" cy="-167.5" r="1.5" style="fill:#33323F;"/><path d="M232-179h-14c-6.075,0-11-4.925-11-11v0h17    c9.389,0,17,7.611,17,17v9" style="fill:none;stroke:#33323F;stroke-width:2;stroke-miterlimit:10;"/><path d="M233.411-143.038    c1.105-1.161,1.998-2.527,2.616-4.034c-0.005-0.001-0.01-0.003-0.015-0.003" style="fill:none;stroke:#33323F;stroke-width:2;stroke-miterlimit:10;"/><path d="M211.989-147.075    c-0.005,0.001-0.01,0.003-0.015,0.003C213.916-142.337,218.566-139,224-139c3.069,0,5.887-1.064,8.109-2.843" style="fill:none;stroke:#33323F;stroke-width:2;stroke-miterlimit:10;"/><path d="M219-158c0,0,2,2,5,2s5-2,5-2" style="fill:none;stroke:#33323F;stroke-width:2;stroke-miterlimit:10;"/></g><g><g><path d="M333.726-183c-3.092-4.236-8.08-7-13.726-7     s-10.635,2.764-13.726,7" style="fill:none;stroke:#33323F;stroke-width:2;stroke-miterlimit:10;"/><line style="fill:none;stroke:#33323F;stroke-width:2;stroke-miterlimit:10;" x1="303" x2="303" y1="-171" y2="-164"/><line style="fill:none;stroke:#33323F;stroke-width:2;stroke-miterlimit:10;" x1="337" x2="337" y1="-164" y2="-171"/></g><line style="fill:none;stroke:#33323F;stroke-width:2;stroke-miterlimit:10;" x1="321" x2="332.011" y1="-135" y2="-147.075"/><line style="fill:none;stroke:#33323F;stroke-width:2;stroke-miterlimit:10;" x1="319" x2="308" y1="-135" y2="-147.075"/><path d="M320-144c5,0,6-4,6-4l6.011,0.925    c4.277,0.658,7.807,3.694,9.098,7.824L344-130h-24h-24l2.891-9.251c1.291-4.131,4.82-7.166,9.098-7.824L314-148    C314-148,315-144,320-144z" style="fill:none;stroke:#33323F;stroke-width:2;stroke-miterlimit:10;"/><line style="fill:none;stroke:#33323F;stroke-width:2;stroke-miterlimit:10;" x1="307" x2="306" y1="-138" y2="-130"/><line style="fill:none;stroke:#33323F;stroke-width:2;stroke-miterlimit:10;" x1="334" x2="333" y1="-130" y2="-138"/><line style="fill:none;stroke:#33323F;stroke-width:2;stroke-miterlimit:10;" x1="314" x2="314" y1="-148" y2="-150"/><line style="fill:none;stroke:#33323F;stroke-width:2;stroke-miterlimit:10;" x1="326" x2="326" y1="-148" y2="-150"/><path d="M307-171v9c0,7.18,5.82,13,13,13l0,0    c7.18,0,13-5.82,13-13v-9" style="fill:none;stroke:#33323F;stroke-width:2;stroke-miterlimit:10;"/><path d="M333-168L333-168c2.209,0,4,1.791,4,4l0,0    c0,2.209-1.791,4-4,4l0,0" style="fill:none;stroke:#33323F;stroke-width:2;stroke-miterlimit:10;"/><path d="M307-168L307-168c-2.209,0-4,1.791-4,4l0,0    c0,2.209,1.791,4,4,4l0,0" style="fill:none;stroke:#33323F;stroke-width:2;stroke-miterlimit:10;"/><circle cx="313.5" cy="-167.5" r="1.5" style="fill:#33323F;"/><circle cx="326.5" cy="-167.5" r="1.5" style="fill:#33323F;"/><path d="M327-162c0,3.866-3.134,7-7,7s-7-3.134-7-7" style="fill:none;stroke:#33323F;stroke-width:2;stroke-miterlimit:10;"/><path d="M339-183h-38v0.001    c0,3.974,0.64,7.921,1.897,11.691L303-171H337l0.103-0.308C338.359-175.078,339-179.026,339-183L339-183z" style="fill:none;stroke:#33323F;stroke-width:2;stroke-miterlimit:10;"/><polyline points="313,-148 320,-136 327,-148   " style="fill:none;stroke:#33323F;stroke-width:2;stroke-miterlimit:10;"/><polyline points="302,-144 320,-134 338,-144   " style="fill:none;stroke:#33323F;stroke-width:2;stroke-miterlimit:10;"/><line style="fill:none;stroke:#33323F;stroke-width:2;stroke-miterlimit:10;" x1="302" x2="338" y1="-177" y2="-177"/></g><g><path d="M-164-93.508    c-6.822,1.65-12.038,7.401-12.872,14.508" style="fill:none;stroke:#33323F;stroke-width:2;stroke-miterlimit:10;"/><path d="M-143.128-79    c-0.834-7.107-6.051-12.858-12.872-14.508" style="fill:none;stroke:#33323F;stroke-width:2;stroke-miterlimit:10;"/><line style="fill:none;stroke:#33323F;stroke-width:2;stroke-miterlimit:10;" x1="-143" x2="-143" y1="-68" y2="-75"/><line style="fill:none;stroke:#33323F;stroke-width:2;stroke-miterlimit:10;" x1="-177" x2="-177" y1="-75" y2="-68"/><path d="M-160-48c5,0,6-4,6-4l6.011,0.925    c4.277,0.658,7.807,3.694,9.098,7.824L-136-34h-24h-24l2.891-9.251c1.291-4.131,4.82-7.166,9.098-7.824L-166-52    C-166-52-165-48-160-48z" style="fill:none;stroke:#33323F;stroke-width:2;stroke-miterlimit:10;"/><polyline points="-174,-34 -173,-42 -170,-51   " style="fill:none;stroke:#33323F;stroke-width:2;stroke-miterlimit:10;"/><polyline points="-146,-34 -147,-42 -150,-51   " style="fill:none;stroke:#33323F;stroke-width:2;stroke-miterlimit:10;"/><line style="fill:none;stroke:#33323F;stroke-width:2;stroke-miterlimit:10;" x1="-166" x2="-166" y1="-52" y2="-54"/><line style="fill:none;stroke:#33323F;stroke-width:2;stroke-miterlimit:10;" x1="-154" x2="-154" y1="-52" y2="-54"/><path d="M-173-75v9c0,7.18,5.82,13,13,13h0    c7.18,0,13-5.82,13-13v-9" style="fill:none;stroke:#33323F;stroke-width:2;stroke-miterlimit:10;"/><path d="M-147-72L-147-72c2.209,0,4,1.791,4,4v0    c0,2.209-1.791,4-4,4l0,0" style="fill:none;stroke:#33323F;stroke-width:2;stroke-miterlimit:10;"/><path d="M-173-72L-173-72c-2.209,0-4,1.791-4,4v0    c0,2.209,1.791,4,4,4l0,0" style="fill:none;stroke:#33323F;stroke-width:2;stroke-miterlimit:10;"/><circle cx="-166.5" cy="-71.5" r="1.5" style="fill:#33323F;"/><circle cx="-153.5" cy="-71.5" r="1.5" style="fill:#33323F;"/><path d="M-153-66c0,3.866-3.134,7-7,7s-7-3.134-7-7" style="fill:none;stroke:#33323F;stroke-width:2;stroke-miterlimit:10;"/><path d="M-172-79h-5c-1.105,0-2,0.895-2,2l0,0    c0,1.105,0.895,2,2,2h34c1.105,0,2-0.895,2-2l0,0c0-1.105-0.895-2-2-2h-27" style="fill:none;stroke:#33323F;stroke-width:2;stroke-miterlimit:10;"/><polyline points="-156,-79 -156,-94 -164,-94 -164,-79       " style="fill:none;stroke:#33323F;stroke-width:2;stroke-miterlimit:10;"/><polyline points="-167,-52 -166,-43 -160,-40 -154,-43     -153,-52   " style="fill:none;stroke:#33323F;stroke-width:2;stroke-miterlimit:10;"/><line style="fill:none;stroke:#33323F;stroke-width:2;stroke-miterlimit:10;" x1="-160" x2="-160" y1="-40" y2="-34"/><line style="fill:none;stroke:#33323F;stroke-width:2;stroke-miterlimit:10;" x1="-150" x2="-147" y1="-39" y2="-39"/><line style="fill:none;stroke:#33323F;stroke-width:2;stroke-miterlimit:10;" x1="-173" x2="-152" y1="-39" y2="-39"/></g><g><line style="fill:none;stroke:#33323F;stroke-width:2;stroke-miterlimit:10;" x1="-47" x2="-47" y1="-75" y2="-68"/><line style="fill:none;stroke:#33323F;stroke-width:2;stroke-miterlimit:10;" x1="-81" x2="-81" y1="-68" y2="-75"/><path d="M-64-48c5,0,6-4,6-4l6.011,0.925    c4.277,0.658,7.807,3.694,9.098,7.824L-40-34h-24h-24l2.891-9.251c1.291-4.131,4.82-7.166,9.098-7.824L-70-52C-70-52-69-48-64-48z    " style="fill:none;stroke:#33323F;stroke-width:2;stroke-miterlimit:10;"/><line style="fill:none;stroke:#33323F;stroke-width:2;stroke-miterlimit:10;" x1="-77" x2="-78" y1="-42" y2="-34"/><line style="fill:none;stroke:#33323F;stroke-width:2;stroke-miterlimit:10;" x1="-50" x2="-51" y1="-34" y2="-42"/><line style="fill:none;stroke:#33323F;stroke-width:2;stroke-miterlimit:10;" x1="-70" x2="-70" y1="-52" y2="-54"/><line style="fill:none;stroke:#33323F;stroke-width:2;stroke-miterlimit:10;" x1="-58" x2="-58" y1="-52" y2="-54"/><path d="M-77-75v9c0,7.18,5.82,13,13,13h0    c7.18,0,13-5.82,13-13v-9" style="fill:none;stroke:#33323F;stroke-width:2;stroke-miterlimit:10;"/><path d="M-51-72L-51-72c2.209,0,4,1.791,4,4v0    c0,2.209-1.791,4-4,4h0" style="fill:none;stroke:#33323F;stroke-width:2;stroke-miterlimit:10;"/><path d="M-77-72L-77-72c-2.209,0-4,1.791-4,4v0    c0,2.209,1.791,4,4,4h0" style="fill:none;stroke:#33323F;stroke-width:2;stroke-miterlimit:10;"/><circle cx="-70.5" cy="-71.5" r="1.5" style="fill:#33323F;"/><circle cx="-57.5" cy="-71.5" r="1.5" style="fill:#33323F;"/><path d="M-47-81v-11c0-1.105-0.895-2-2-2h-30    c-1.105,0-2,0.895-2,2v11" style="fill:none;stroke:#33323F;stroke-width:2;stroke-miterlimit:10;"/><polyline points="-75,-81 -83,-81 -83,-75 -45,-75     -45,-81 -73,-81   " style="fill:none;stroke:#33323F;stroke-width:2;stroke-miterlimit:10;"/><line style="fill:none;stroke:#33323F;stroke-width:2;stroke-miterlimit:10;" x1="-76" x2="-76" y1="-81" y2="-89"/><line style="fill:none;stroke:#33323F;stroke-width:2;stroke-miterlimit:10;" x1="-70" x2="-70" y1="-81" y2="-89"/><line style="fill:none;stroke:#33323F;stroke-width:2;stroke-miterlimit:10;" x1="-64" x2="-64" y1="-81" y2="-89"/><line style="fill:none;stroke:#33323F;stroke-width:2;stroke-miterlimit:10;" x1="-58" x2="-58" y1="-81" y2="-89"/><line style="fill:none;stroke:#33323F;stroke-width:2;stroke-miterlimit:10;" x1="-52" x2="-52" y1="-81" y2="-89"/><line style="fill:none;stroke:#33323F;stroke-width:2;stroke-miterlimit:10;" x1="-63" x2="-54" y1="-39" y2="-39"/><path d="M-71-46.128C-69.506-44.94-67.292-44-64-44    c2.933,0,5.005-0.855,6.481-2" style="fill:none;stroke:#33323F;stroke-width:2;stroke-miterlimit:10;"/><path d="M-55.625-48C-54.25-50-54-52-54-52" style="fill:none;stroke:#33323F;stroke-width:2;stroke-miterlimit:10;"/><line style="fill:none;stroke:#33323F;stroke-width:2;stroke-miterlimit:10;" x1="-70" x2="-70" y1="-45" y2="-34"/><line style="fill:none;stroke:#33323F;stroke-width:2;stroke-miterlimit:10;" x1="-77" x2="-51" y1="-67" y2="-67"/></g><g><path d="M15-68v-9c0-9.389,7.611-17,17-17h0    c9.389,0,17,7.611,17,17v9" style="fill:none;stroke:#33323F;stroke-width:2;stroke-miterlimit:10;"/><line style="fill:none;stroke:#33323F;stroke-width:2;stroke-miterlimit:10;" x1="42" x2="42" y1="-51" y2="-40"/><line style="fill:none;stroke:#33323F;stroke-width:2;stroke-miterlimit:10;" x1="38" x2="38" y1="-51" y2="-40"/><path d="M32-48c5,0,6-4,6-4l6.011,0.925    c4.277,0.658,7.807,3.694,9.098,7.824L56-34H32H8l2.891-9.251c1.291-4.131,4.82-7.166,9.098-7.824L26-52C26-52,27-48,32-48z" style="fill:none;stroke:#33323F;stroke-width:2;stroke-miterlimit:10;"/><line style="fill:none;stroke:#33323F;stroke-width:2;stroke-miterlimit:10;" x1="19" x2="18" y1="-42" y2="-34"/><line style="fill:none;stroke:#33323F;stroke-width:2;stroke-miterlimit:10;" x1="46" x2="45" y1="-34" y2="-42"/><line style="fill:none;stroke:#33323F;stroke-width:2;stroke-miterlimit:10;" x1="26" x2="26" y1="-52" y2="-54"/><line style="fill:none;stroke:#33323F;stroke-width:2;stroke-miterlimit:10;" x1="38" x2="38" y1="-52" y2="-54"/><path d="M45-72L45-72c2.209,0,4,1.791,4,4v0    c0,2.209-1.791,4-4,4h0" style="fill:none;stroke:#33323F;stroke-width:2;stroke-miterlimit:10;"/><path d="M19-72L19-72c-2.209,0-4,1.791-4,4v0    c0,2.209,1.791,4,4,4h0" style="fill:none;stroke:#33323F;stroke-width:2;stroke-miterlimit:10;"/><circle cx="25.5" cy="-71.5" r="1.5" style="fill:#33323F;"/><circle cx="38.5" cy="-71.5" r="1.5" style="fill:#33323F;"/><path d="M39-66c0,3.866-3.134,7-7,7s-7-3.134-7-7" style="fill:none;stroke:#33323F;stroke-width:2;stroke-miterlimit:10;"/><line style="fill:none;stroke:#33323F;stroke-width:2;stroke-miterlimit:10;" x1="5" x2="59" y1="-76" y2="-76"/><path d="M19-76v6l0.742,7.425    c0.205,2.049,1.089,3.98,2.557,5.425C24.268-55.213,27.502-53,32-53s7.732-2.213,9.701-4.15c1.468-1.445,2.352-3.375,2.557-5.425    L45-70v-6" style="fill:none;stroke:#33323F;stroke-width:2;stroke-miterlimit:10;"/><line style="fill:none;stroke:#33323F;stroke-width:2;stroke-miterlimit:10;" x1="16" x2="48" y1="-82" y2="-82"/><line style="fill:none;stroke:#33323F;stroke-width:2;stroke-miterlimit:10;" x1="19" x2="45" y1="-40" y2="-40"/><line style="fill:none;stroke:#33323F;stroke-width:2;stroke-miterlimit:10;" x1="26" x2="26" y1="-51" y2="-40"/><line style="fill:none;stroke:#33323F;stroke-width:2;stroke-miterlimit:10;" x1="22" x2="22" y1="-51" y2="-40"/></g><g><path d="M128-45l6-7l6.011,0.925    c4.277,0.658,7.807,3.694,9.098,7.824L152-34h-24h-24l2.891-9.251c1.291-4.131,4.82-7.166,9.098-7.824L122-52L128-45z" style="fill:none;stroke:#33323F;stroke-width:2;stroke-miterlimit:10;"/><line style="fill:none;stroke:#33323F;stroke-width:2;stroke-miterlimit:10;" x1="115" x2="114" y1="-42" y2="-34"/><line style="fill:none;stroke:#33323F;stroke-width:2;stroke-miterlimit:10;" x1="142" x2="141" y1="-34" y2="-42"/><line style="fill:none;stroke:#33323F;stroke-width:2;stroke-miterlimit:10;" x1="122" x2="122" y1="-52" y2="-54"/><line style="fill:none;stroke:#33323F;stroke-width:2;stroke-miterlimit:10;" x1="134" x2="134" y1="-52" y2="-54"/><path d="M115-66c0,7.18,5.82,13,13,13h0    c7.18,0,13-5.82,13-13" style="fill:none;stroke:#33323F;stroke-width:2;stroke-miterlimit:10;"/><circle cx="121.5" cy="-71.5" r="1.5" style="fill:#33323F;"/><circle cx="134.5" cy="-71.5" r="1.5" style="fill:#33323F;"/><path d="M135-66c0,3.866-3.134,7-7,7    c-3.866,0-7-3.134-7-7" style="fill:none;stroke:#33323F;stroke-width:2;stroke-miterlimit:10;"/><line style="fill:none;stroke:#33323F;stroke-width:2;stroke-miterlimit:10;" x1="138" x2="138" y1="-51" y2="-40"/><line style="fill:none;stroke:#33323F;stroke-width:2;stroke-miterlimit:10;" x1="134" x2="134" y1="-45" y2="-40"/><line style="fill:none;stroke:#33323F;stroke-width:2;stroke-miterlimit:10;" x1="134" x2="134" y1="-51" y2="-47"/><line style="fill:none;stroke:#33323F;stroke-width:2;stroke-miterlimit:10;" x1="115" x2="141" y1="-40" y2="-40"/><line style="fill:none;stroke:#33323F;stroke-width:2;stroke-miterlimit:10;" x1="122" x2="122" y1="-51" y2="-40"/><line style="fill:none;stroke:#33323F;stroke-width:2;stroke-miterlimit:10;" x1="118" x2="118" y1="-51" y2="-40"/><path d="M145-75v-2c0-9.389-7.611-17-17-17    c-9.389,0-17,7.611-17,17v2" style="fill:none;stroke:#33323F;stroke-width:2;stroke-miterlimit:10;"/><path d="M142-75h1c2.209,0,4,1.791,4,4v3    c0,2.209-1.791,4-4,4h-2v-7c0-2.209-1.791-4-4-4h-9h-9c-2.209,0-4,1.791-4,4v7h-2c-2.209,0-4-1.791-4-4v-3c0-2.209,1.791-4,4-4h1" style="fill:none;stroke:#33323F;stroke-width:2;stroke-miterlimit:10;"/><line style="fill:none;stroke:#33323F;stroke-width:2;stroke-miterlimit:10;" x1="120" x2="120" y1="-40" y2="-34"/><line style="fill:none;stroke:#33323F;stroke-width:2;stroke-miterlimit:10;" x1="136" x2="136" y1="-40" y2="-34"/><line style="fill:none;stroke:#33323F;stroke-width:2;stroke-miterlimit:10;" x1="128" x2="128" y1="-40" y2="-34"/><polyline points="134,-42 128,-44 122,-42   " style="fill:none;stroke:#33323F;stroke-width:2;stroke-miterlimit:10;"/></g><g><path d="M224-48c5,0,6-4,6-4l6.011,0.925    c4.277,0.658,7.807,3.694,9.098,7.824L248-34h-24h-24l2.891-9.251c1.291-4.131,4.82-7.166,9.098-7.824L218-52    C218-52,219-48,224-48z" style="fill:none;stroke:#33323F;stroke-width:2;stroke-miterlimit:10;"/><line style="fill:none;stroke:#33323F;stroke-width:2;stroke-miterlimit:10;" x1="211" x2="210" y1="-42" y2="-34"/><line style="fill:none;stroke:#33323F;stroke-width:2;stroke-miterlimit:10;" x1="238" x2="237" y1="-34" y2="-42"/><line style="fill:none;stroke:#33323F;stroke-width:2;stroke-miterlimit:10;" x1="218" x2="218" y1="-52" y2="-54"/><line style="fill:none;stroke:#33323F;stroke-width:2;stroke-miterlimit:10;" x1="230" x2="230" y1="-52" y2="-54"/><path d="M211-74v8c0,7.18,5.82,13,13,13h0    c7.18,0,13-5.82,13-13v-8H211z" style="fill:none;stroke:#33323F;stroke-width:2;stroke-miterlimit:10;"/><path d="M237-72L237-72c2.209,0,4,1.791,4,4v0    c0,2.209-1.791,4-4,4l0,0" style="fill:none;stroke:#33323F;stroke-width:2;stroke-miterlimit:10;"/><path d="M211-72L211-72c-2.209,0-4,1.791-4,4v0    c0,2.209,1.791,4,4,4l0,0" style="fill:none;stroke:#33323F;stroke-width:2;stroke-miterlimit:10;"/><circle cx="217.5" cy="-71.5" r="1.5" style="fill:#33323F;"/><circle cx="230.5" cy="-71.5" r="1.5" style="fill:#33323F;"/><path d="M231-66c0,3.866-3.134,7-7,7s-7-3.134-7-7" style="fill:none;stroke:#33323F;stroke-width:2;stroke-miterlimit:10;"/><path d="M241-68c0,0,0-8.575,0-12.721    c1.241-1.409,2-3.254,2-5.279c0-4.418-3.582-8-8-8c-2.133,0-4.066,0.84-5.5,2.201C228.066-93.16,226.133-94,224-94    s-4.066,0.84-5.5,2.201C217.066-93.16,215.133-94,213-94c-4.418,0-8,3.582-8,8c0,2.026,0.759,3.87,2,5.279V-68" style="fill:none;stroke:#33323F;stroke-width:2;stroke-miterlimit:10;"/><line style="fill:none;stroke:#33323F;stroke-width:2;stroke-miterlimit:10;" x1="207" x2="241" y1="-79" y2="-79"/><polyline points="222,-48 216,-44 216,-34   " style="fill:none;stroke:#33323F;stroke-width:2;stroke-miterlimit:10;"/><line style="fill:none;stroke:#33323F;stroke-width:2;stroke-miterlimit:10;" x1="219" x2="221" y1="-42" y2="-42"/><line style="fill:none;stroke:#33323F;stroke-width:2;stroke-miterlimit:10;" x1="219" x2="221" y1="-38" y2="-38"/><path d="M224-44c8,0,10-7,10-7" style="fill:none;stroke:#33323F;stroke-width:2;stroke-miterlimit:10;"/></g><g><path d="M333.563-50.723    c-0.504-0.152-1.022-0.271-1.552-0.352L326-52c0,0-1,4-6,4s-6-4-6-4l-6.011,0.925c-0.53,0.081-1.048,0.2-1.552,0.352" style="fill:none;stroke:#33323F;stroke-width:2;stroke-miterlimit:10;"/><path d="M303.002-48.975    c-1.905,1.405-3.378,3.377-4.111,5.724L296-34h24h24l-2.891-9.251c-0.733-2.347-2.206-4.319-4.111-5.724" style="fill:none;stroke:#33323F;stroke-width:2;stroke-miterlimit:10;"/><line style="fill:none;stroke:#33323F;stroke-width:2;stroke-miterlimit:10;" x1="307" x2="306" y1="-42" y2="-34"/><line style="fill:none;stroke:#33323F;stroke-width:2;stroke-miterlimit:10;" x1="334" x2="333" y1="-34" y2="-42"/><line style="fill:none;stroke:#33323F;stroke-width:2;stroke-miterlimit:10;" x1="314" x2="314" y1="-52" y2="-54"/><line style="fill:none;stroke:#33323F;stroke-width:2;stroke-miterlimit:10;" x1="326" x2="326" y1="-52" y2="-54"/><path d="M337-68v-9c0-9.389-7.611-17-17-17h0    c-7.114,0-13.379,4.687-15.386,11.512v0C303.657-79.234,300.671-77,297.28-77L295-77l0.935,1.247    c3.188,4.251,8.192,6.753,13.506,6.753h0c5.93,0,11.426-3.111,14.477-8.197L325-79l0,0c4.418,0,8,3.582,8,8v5    c0,7.18-5.82,13-13,13l0,0c-7.18,0-13-5.82-13-13v-3" style="fill:none;stroke:#33323F;stroke-width:2;stroke-miterlimit:10;"/><path d="M333-72L333-72c2.209,0,4,1.791,4,4v0    c0,2.209-1.791,4-4,4l0,0" style="fill:none;stroke:#33323F;stroke-width:2;stroke-miterlimit:10;"/><circle cx="326.5" cy="-71.5" r="1.5" style="fill:#33323F;"/><path d="M327-66c0,3.866-3.134,7-7,7s-7-3.134-7-7" style="fill:none;stroke:#33323F;stroke-width:2;stroke-miterlimit:10;"/><path d="M305-55c0,9,15,9,15,15h-3c0-3-14-3-14-9s4-9,7-9    " style="fill:none;stroke:#33323F;stroke-width:2;stroke-miterlimit:10;"/><path d="M330-58c3,0,7,3,7,9s-14,6-14,9h-3    c0-6,15-6,15-15" style="fill:none;stroke:#33323F;stroke-width:2;stroke-miterlimit:10;"/></g><g><path d="M-177,28v-9c0-9.389,7.611-17,17-17h0    c9.389,0,17,7.611,17,17v9" style="fill:none;stroke:#33323F;stroke-width:2;stroke-miterlimit:10;"/><path d="M-160,48c5,0,6-4,6-4l6.011,0.925    c4.277,0.658,7.807,3.694,9.098,7.824L-136,62h-24h-24l2.891-9.251c1.291-4.131,4.82-7.166,9.098-7.824L-166,44    C-166,44-165,48-160,48z" style="fill:none;stroke:#33323F;stroke-width:2;stroke-miterlimit:10;"/><line style="fill:none;stroke:#33323F;stroke-width:2;stroke-miterlimit:10;" x1="-173" x2="-174" y1="54" y2="62"/><line style="fill:none;stroke:#33323F;stroke-width:2;stroke-miterlimit:10;" x1="-146" x2="-147" y1="62" y2="54"/><line style="fill:none;stroke:#33323F;stroke-width:2;stroke-miterlimit:10;" x1="-166" x2="-166" y1="44" y2="42"/><line style="fill:none;stroke:#33323F;stroke-width:2;stroke-miterlimit:10;" x1="-154" x2="-154" y1="44" y2="42"/><path d="M-147,17v13c0,7.18-5.82,13-13,13h0    c-7.18,0-13-5.82-13-13v-8C-161,22-152.397,20.949-147,17z" style="fill:none;stroke:#33323F;stroke-width:2;stroke-miterlimit:10;"/><path d="M-147,24L-147,24c2.209,0,4,1.791,4,4v0    c0,2.209-1.791,4-4,4l0,0" style="fill:none;stroke:#33323F;stroke-width:2;stroke-miterlimit:10;"/><path d="M-173,24L-173,24c-2.209,0-4,1.791-4,4v0    c0,2.209,1.791,4,4,4l0,0" style="fill:none;stroke:#33323F;stroke-width:2;stroke-miterlimit:10;"/><circle cx="-166.5" cy="24.5" r="1.5" style="fill:#33323F;"/><circle cx="-153.5" cy="24.5" r="1.5" style="fill:#33323F;"/><path d="M-153,30c0,3.866-3.134,7-7,7s-7-3.134-7-7" style="fill:none;stroke:#33323F;stroke-width:2;stroke-miterlimit:10;"/><path d="M-173,57L-173,57c1.696,0,3.108-1.3,3.249-2.99    L-169,45" style="fill:none;stroke:#33323F;stroke-width:2;stroke-miterlimit:10;"/><path d="M-147,57L-147,57c-1.696,0-3.108-1.3-3.249-2.99    L-151,45" style="fill:none;stroke:#33323F;stroke-width:2;stroke-miterlimit:10;"/><line style="fill:none;stroke:#33323F;stroke-width:2;stroke-miterlimit:10;" x1="-153" x2="-147" y1="57" y2="57"/><line style="fill:none;stroke:#33323F;stroke-width:2;stroke-miterlimit:10;" x1="-173" x2="-155" y1="57" y2="57"/></g><g><path d="M-81,28v-9c0-9.389,7.611-17,17-17h0    c9.389,0,17,7.611,17,17v9" style="fill:none;stroke:#33323F;stroke-width:2;stroke-miterlimit:10;"/><path d="M-64,48c5,0,6-4,6-4l6.011,0.925    c4.277,0.658,7.807,3.694,9.098,7.824L-40,62h-24h-24l2.891-9.251c1.291-4.131,4.82-7.166,9.098-7.824L-70,44C-70,44-69,48-64,48z    " style="fill:none;stroke:#33323F;stroke-width:2;stroke-miterlimit:10;"/><line style="fill:none;stroke:#33323F;stroke-width:2;stroke-miterlimit:10;" x1="-77" x2="-78" y1="54" y2="62"/><line style="fill:none;stroke:#33323F;stroke-width:2;stroke-miterlimit:10;" x1="-50" x2="-51" y1="62" y2="54"/><line style="fill:none;stroke:#33323F;stroke-width:2;stroke-miterlimit:10;" x1="-70" x2="-70" y1="44" y2="42"/><line style="fill:none;stroke:#33323F;stroke-width:2;stroke-miterlimit:10;" x1="-58" x2="-58" y1="44" y2="42"/><path d="M-51,21v9c0,7.18-5.82,13-13,13h0    c-7.18,0-13-5.82-13-13v-8c6,0,14-1,18-5C-57.667,19.667-55,21-51,21z" style="fill:none;stroke:#33323F;stroke-width:2;stroke-miterlimit:10;"/><path d="M-51,24L-51,24c2.209,0,4,1.791,4,4v0    c0,2.209-1.791,4-4,4h0" style="fill:none;stroke:#33323F;stroke-width:2;stroke-miterlimit:10;"/><path d="M-77,24L-77,24c-2.209,0-4,1.791-4,4v0    c0,2.209,1.791,4,4,4h0" style="fill:none;stroke:#33323F;stroke-width:2;stroke-miterlimit:10;"/><circle cx="-70.5" cy="24.5" r="1.5" style="fill:#33323F;"/><circle cx="-57.5" cy="24.5" r="1.5" style="fill:#33323F;"/><path d="M-57,30c0,3.866-3.134,7-7,7s-7-3.134-7-7" style="fill:none;stroke:#33323F;stroke-width:2;stroke-miterlimit:10;"/><path d="M-72,62v-6c0-0.552,0.448-1,1-1h14    c0.552,0,1,0.448,1,1v6" style="fill:none;stroke:#33323F;stroke-width:2;stroke-miterlimit:10;"/><path d="M-68,62c0-2.209,1.791-4,4-4c2.209,0,4,1.791,4,4    " style="fill:none;stroke:#33323F;stroke-width:2;stroke-miterlimit:10;"/><line style="fill:none;stroke:#33323F;stroke-width:2;stroke-miterlimit:10;" x1="-60" x2="-55" y1="55" y2="45"/><line style="fill:none;stroke:#33323F;stroke-width:2;stroke-miterlimit:10;" x1="-68" x2="-73" y1="55" y2="45"/></g><g><path d="M15,47V26c0-9.389,7.611-17,17-17h0    c9.389,0,17,7.611,17,17v21" style="fill:none;stroke:#33323F;stroke-width:2;stroke-miterlimit:10;"/><line style="fill:none;stroke:#33323F;stroke-width:2;stroke-miterlimit:10;" x1="19" x2="18" y1="54" y2="62"/><line style="fill:none;stroke:#33323F;stroke-width:2;stroke-miterlimit:10;" x1="46" x2="45" y1="62" y2="54"/><path d="M10.891,52.749L8,62h24h24l-2.891-9.251    c-0.738-2.361-2.223-4.343-4.145-5.749H15.036C13.114,48.406,11.629,50.388,10.891,52.749z" style="fill:none;stroke:#33323F;stroke-width:2;stroke-miterlimit:10;"/><line style="fill:none;stroke:#33323F;stroke-width:2;stroke-miterlimit:10;" x1="44" x2="49" y1="43" y2="43"/><line style="fill:none;stroke:#33323F;stroke-width:2;stroke-miterlimit:10;" x1="15" x2="42" y1="43" y2="43"/><circle cx="32" cy="26" r="13" style="fill:none;stroke:#33323F;stroke-width:2;stroke-miterlimit:10;"/><line style="fill:none;stroke:#33323F;stroke-width:2;stroke-miterlimit:10;" x1="19" x2="19" y1="47" y2="43"/><line style="fill:none;stroke:#33323F;stroke-width:2;stroke-miterlimit:10;" x1="45" x2="45" y1="47" y2="43"/><path d="M39,10V7c0-1.105-0.895-2-2-2H27    c-1.105,0-2,0.895-2,2v3" style="fill:none;stroke:#33323F;stroke-width:2;stroke-miterlimit:10;"/><polyline points="41,62 41,53 23,53 23,62   " style="fill:none;stroke:#33323F;stroke-width:2;stroke-miterlimit:10;"/><circle cx="29.5" cy="59.5" r="2.5" style="fill:#EFE7E4;"/><circle cx="29.5" cy="59.5" r="2.5" style="fill:none;stroke:#33323F;stroke-width:2;stroke-miterlimit:10;"/><line style="fill:none;stroke:#33323F;stroke-width:2;stroke-miterlimit:10;" x1="38" x2="35" y1="57" y2="57"/><path d="M32,17c-4.282,0-7.859,2.993-8.769,7" style="fill:none;stroke:#33323F;stroke-width:2;stroke-miterlimit:10;"/><path d="M23,26c0,0.688,0.084,1.356,0.231,2" style="fill:none;stroke:#33323F;stroke-width:2;stroke-miterlimit:10;"/></g><g><line style="fill:none;stroke:#33323F;stroke-width:2;stroke-miterlimit:10;" x1="114" x2="105" y1="57" y2="56"/><line style="fill:none;stroke:#33323F;stroke-width:2;stroke-miterlimit:10;" x1="150" x2="141" y1="56" y2="57"/><path d="M128,48c5,0,6-4,6-4l6.011,0.925    c4.277,0.658,7.807,3.694,9.098,7.824L152,62h-24h-24l2.891-9.251c1.291-4.131,4.82-7.166,9.098-7.824L122,44    C122,44,123,48,128,48z" style="fill:none;stroke:#33323F;stroke-width:2;stroke-miterlimit:10;"/><line style="fill:none;stroke:#33323F;stroke-width:2;stroke-miterlimit:10;" x1="115" x2="114" y1="54" y2="62"/><line style="fill:none;stroke:#33323F;stroke-width:2;stroke-miterlimit:10;" x1="142" x2="141" y1="62" y2="54"/><line style="fill:none;stroke:#33323F;stroke-width:2;stroke-miterlimit:10;" x1="122" x2="122" y1="44" y2="42"/><line style="fill:none;stroke:#33323F;stroke-width:2;stroke-miterlimit:10;" x1="134" x2="134" y1="44" y2="42"/><path d="M139,17h2v13c0,7.18-5.82,13-13,13h0    c-7.18,0-13-5.82-13-13V17c0,0,6,2,14,2l-1-3C128,16,132,17,139,17z" style="fill:none;stroke:#33323F;stroke-width:2;stroke-miterlimit:10;"/><path d="M141,24L141,24c2.209,0,4,1.791,4,4v0    c0,2.209-1.791,4-4,4l0,0" style="fill:none;stroke:#33323F;stroke-width:2;stroke-miterlimit:10;"/><path d="M115,24L115,24c-2.209,0-4,1.791-4,4v0    c0,2.209,1.791,4,4,4h0" style="fill:none;stroke:#33323F;stroke-width:2;stroke-miterlimit:10;"/><circle cx="121.5" cy="24.5" r="1.5" style="fill:#33323F;"/><circle cx="134.5" cy="24.5" r="1.5" style="fill:#33323F;"/><path d="M135,30c0,3.866-3.134,7-7,7    c-3.866,0-7-3.134-7-7" style="fill:none;stroke:#33323F;stroke-width:2;stroke-miterlimit:10;"/><path d="M111,28c0,0-2-9-2-16l3,1l-1-8l6,1l-1-4    c14,0,18,3,18,3V3c0,0,8,2,10,10l2-1c0,10-1,16-1,16" style="fill:none;stroke:#33323F;stroke-width:2;stroke-miterlimit:10;"/><path d="M119,45c0,0,2,7,9,11" style="fill:none;stroke:#33323F;stroke-width:2;stroke-miterlimit:10;"/><path d="M137,45c0,0-2,7-9,11" style="fill:none;stroke:#33323F;stroke-width:2;stroke-miterlimit:10;"/><circle cx="128" cy="59" r="3" style="fill:none;stroke:#33323F;stroke-width:2;stroke-miterlimit:10;"/></g><g><polygon points="235,58 232,58 231,55 230,58 227,58     229,60 228,62 231,62 234,62 233,60   " style="fill:none;stroke:#33323F;stroke-width:2;stroke-miterlimit:10;"/><path d="M224,50l6-6l6.011,0.925    c4.277,0.658,7.807,3.694,9.098,7.824L248,62h-24h-24l2.891-9.251c1.291-4.131,4.82-7.166,9.098-7.824L218,44L224,50z" style="fill:none;stroke:#33323F;stroke-width:2;stroke-miterlimit:10;"/><line style="fill:none;stroke:#33323F;stroke-width:2;stroke-miterlimit:10;" x1="211" x2="210" y1="54" y2="62"/><line style="fill:none;stroke:#33323F;stroke-width:2;stroke-miterlimit:10;" x1="238" x2="237" y1="62" y2="54"/><line style="fill:none;stroke:#33323F;stroke-width:2;stroke-miterlimit:10;" x1="218" x2="218" y1="44" y2="42"/><line style="fill:none;stroke:#33323F;stroke-width:2;stroke-miterlimit:10;" x1="230" x2="230" y1="44" y2="42"/><line style="fill:none;stroke:#33323F;stroke-width:2;stroke-miterlimit:10;" x1="212" x2="236" y1="18" y2="18"/><path d="M211,17v13c0,7.18,5.82,13,13,13h0    c7.18,0,13-5.82,13-13V17" style="fill:none;stroke:#33323F;stroke-width:2;stroke-miterlimit:10;"/><path d="M237,24L237,24c2.209,0,4,1.791,4,4v0    c0,2.209-1.791,4-4,4l0,0" style="fill:none;stroke:#33323F;stroke-width:2;stroke-miterlimit:10;"/><path d="M211,24L211,24c-2.209,0-4,1.791-4,4v0    c0,2.209,1.791,4,4,4l0,0" style="fill:none;stroke:#33323F;stroke-width:2;stroke-miterlimit:10;"/><circle cx="217.5" cy="24.5" r="1.5" style="fill:#33323F;"/><circle cx="230.5" cy="24.5" r="1.5" style="fill:#33323F;"/><path d="M208,31c-6,0-9-3-9-7s4-7,9-7s8,5,16,5s11-5,16-5    s9,3,9,7s-3,7-9,7" style="fill:none;stroke:#33323F;stroke-width:2;stroke-miterlimit:10;"/><path d="M209,17L209,17c0-3.237,1.102-6.377,3.123-8.904    l3.99-4.987C216.674,2.408,217.522,2,218.419,2l0,0c0.987,0,1.91,0.494,2.457,1.315l0.247,0.37C221.671,4.506,222.593,5,223.581,5    H224h0.419c0.987,0,1.91-0.494,2.457-1.315l0.247-0.37C227.671,2.494,228.593,2,229.581,2l0,0c0.897,0,1.746,0.408,2.306,1.108    l3.99,4.987C237.898,10.623,239,13.763,239,17v0" style="fill:none;stroke:#33323F;stroke-width:2;stroke-miterlimit:10;"/><path d="M227.209,31h-6.419    c-2.094,0-3.791,1.697-3.791,3.791V37h14v-2.209C231,32.697,229.303,31,227.209,31z" style="fill:none;stroke:#33323F;stroke-width:2;stroke-miterlimit:10;"/><polyline points="217,44 218,54 224,51 230,54 231,44       " style="fill:none;stroke:#33323F;stroke-width:2;stroke-miterlimit:10;"/><line style="fill:none;stroke:#33323F;stroke-width:2;stroke-miterlimit:10;" x1="224" x2="224" y1="50" y2="62"/></g><g><line style="fill:none;stroke:#33323F;stroke-width:2;stroke-miterlimit:10;" x1="330" x2="329" y1="62" y2="45"/><polyline points="331,45 333,54 334,62   " style="fill:none;stroke:#33323F;stroke-width:2;stroke-miterlimit:10;"/><path d="M327,44l-0.737,8.849    C326.103,54.76,324.82,56.393,323,57l0,0v5" style="fill:none;stroke:#33323F;stroke-width:2;stroke-miterlimit:10;"/><line style="fill:none;stroke:#33323F;stroke-width:2;stroke-miterlimit:10;" x1="310" x2="311" y1="62" y2="45"/><path d="M320,48c5,0,6-4,6-4l6.011,0.925    c4.277,0.658,7.807,3.694,9.098,7.824L344,62h-24h-24l2.891-9.251c1.291-4.131,4.82-7.166,9.098-7.824L314,44    C314,44,315,48,320,48z" style="fill:none;stroke:#33323F;stroke-width:2;stroke-miterlimit:10;"/><line style="fill:none;stroke:#33323F;stroke-width:2;stroke-miterlimit:10;" x1="314" x2="314" y1="44" y2="42"/><line style="fill:none;stroke:#33323F;stroke-width:2;stroke-miterlimit:10;" x1="326" x2="326" y1="44" y2="42"/><path d="M337,26c0,0,4-3,4-9c0-7-5-12-11-12c-5,0-8,1-8,1    l-0.166,0.581" style="fill:none;stroke:#33323F;stroke-width:2;stroke-miterlimit:10;"/><path d="M321.651,15.543    c2.604,0.975,7.747,3.414,11.349,8.457" style="fill:none;stroke:#33323F;stroke-width:2;stroke-miterlimit:10;"/><path d="M324,10c0,0,4.596,0.658,9,3.035" style="fill:none;stroke:#33323F;stroke-width:2;stroke-miterlimit:10;"/><path d="M334.605,14c0.476,0.313,0.945,0.64,1.395,1" style="fill:none;stroke:#33323F;stroke-width:2;stroke-miterlimit:10;"/><path d="M307,24v6c0,7.18,5.82,13,13,13l0,0    c7.18,0,13-5.82,13-13v-6" style="fill:none;stroke:#33323F;stroke-width:2;stroke-miterlimit:10;"/><path d="M333,24L333,24c2.209,0,4,1.791,4,4v0    c0,2.209-1.791,4-4,4l0,0" style="fill:none;stroke:#33323F;stroke-width:2;stroke-miterlimit:10;"/><path d="M307,24L307,24c-2.209,0-4,1.791-4,4v0    c0,2.209,1.791,4,4,4l0,0" style="fill:none;stroke:#33323F;stroke-width:2;stroke-miterlimit:10;"/><circle cx="313.5" cy="24.5" r="1.5" style="fill:#33323F;"/><circle cx="326.5" cy="24.5" r="1.5" style="fill:#33323F;"/><path d="M327,30c0,3.866-3.134,7-7,7s-7-3.134-7-7" style="fill:none;stroke:#33323F;stroke-width:2;stroke-miterlimit:10;"/><path d="M318.166,6.581L318,6c0,0-3-1-8-1    c-6,0-11,5-11,12c0,6,4,9,4,9l4-2c3.602-5.042,8.745-7.482,11.349-8.457" style="fill:none;stroke:#33323F;stroke-width:2;stroke-miterlimit:10;"/><ellipse cx="320" cy="11" rx="4" ry="5" style="fill:none;stroke:#33323F;stroke-width:2;stroke-miterlimit:10;"/><path d="M316,10c0,0-4.596,0.658-9,3.035" style="fill:none;stroke:#33323F;stroke-width:2;stroke-miterlimit:10;"/><path d="M305.395,14c-0.476,0.313-0.945,0.64-1.395,1" style="fill:none;stroke:#33323F;stroke-width:2;stroke-miterlimit:10;"/><polyline points="309,45 307,54 306,62   " style="fill:none;stroke:#33323F;stroke-width:2;stroke-miterlimit:10;"/><path d="M313,44l0.737,8.849    C313.897,54.76,315.18,56.393,317,57l0,0v5" style="fill:none;stroke:#33323F;stroke-width:2;stroke-miterlimit:10;"/><path d="M329.634,5c-2.739-1.889-6.055-3-9.634-3    s-6.895,1.111-9.634,3" style="fill:none;stroke:#33323F;stroke-width:2;stroke-miterlimit:10;"/></g><g><path d="M-160,144c5,0,6-4,6-4l6.011,0.925    c4.277,0.658,7.807,3.694,9.098,7.824L-136,158h-24h-24l2.891-9.251c1.291-4.131,4.82-7.166,9.098-7.824L-166,140    C-166,140-165,144-160,144z" style="fill:none;stroke:#33323F;stroke-width:2;stroke-miterlimit:10;"/><line style="fill:none;stroke:#33323F;stroke-width:2;stroke-miterlimit:10;" x1="-173" x2="-174" y1="150" y2="158"/><line style="fill:none;stroke:#33323F;stroke-width:2;stroke-miterlimit:10;" x1="-146" x2="-147" y1="158" y2="150"/><line style="fill:none;stroke:#33323F;stroke-width:2;stroke-miterlimit:10;" x1="-166" x2="-166" y1="140" y2="138"/><line style="fill:none;stroke:#33323F;stroke-width:2;stroke-miterlimit:10;" x1="-154" x2="-154" y1="140" y2="138"/><path d="M-152,136.233V131c0-2.761-2.239-5-5-5h-6    c-2.761,0-5,2.239-5,5v5.233" style="fill:none;stroke:#33323F;stroke-width:2;stroke-miterlimit:10;"/><path d="M-152,113h-0.588    c-6.777,0-13.39,2.085-18.942,5.971L-173,120v6c0,7.18,5.82,13,13,13h0c7.18,0,13-5.82,13-13v-10l0,0    c-1.874,0-3.624-0.937-4.664-2.496L-152,113z" style="fill:none;stroke:#33323F;stroke-width:2;stroke-miterlimit:10;"/><path d="M-147,120L-147,120c2.209,0,4,1.791,4,4v0    c0,2.209-1.791,4-4,4l0,0" style="fill:none;stroke:#33323F;stroke-width:2;stroke-miterlimit:10;"/><path d="M-173,120L-173,120c-2.209,0-4,1.791-4,4v0    c0,2.209,1.791,4,4,4l0,0" style="fill:none;stroke:#33323F;stroke-width:2;stroke-miterlimit:10;"/><circle cx="-166.5" cy="120.5" r="1.5" style="fill:#33323F;"/><circle cx="-153.5" cy="120.5" r="1.5" style="fill:#33323F;"/><path d="M-158,133h-4c-1.105,0-2-0.895-2-2l0,0    c0-1.105,0.895-2,2-2h4c1.105,0,2,0.895,2,2l0,0C-156,132.105-156.895,133-158,133z" style="fill:none;stroke:#33323F;stroke-width:2;stroke-miterlimit:10;"/><path d="M-143,124v-11.292c0-4.111-2.323-7.87-6-9.708    l0,0l-0.697-0.872c-2.087-2.609-5.248-4.128-8.59-4.128H-160h0c-9.389,0-17,7.611-17,17v9" style="fill:none;stroke:#33323F;stroke-width:2;stroke-miterlimit:10;"/><polyline points="-151,140 -149,145 -153,147 -151,151     -160,158   " style="fill:none;stroke:#33323F;stroke-width:2;stroke-miterlimit:10;"/><line style="fill:none;stroke:#33323F;stroke-width:2;stroke-miterlimit:10;" x1="-154" x2="-160" y1="140" y2="158"/><polyline points="-169,140 -171,145 -167,147 -169,151     -160,158   " style="fill:none;stroke:#33323F;stroke-width:2;stroke-miterlimit:10;"/><line style="fill:none;stroke:#33323F;stroke-width:2;stroke-miterlimit:10;" x1="-166" x2="-160" y1="140" y2="158"/><line style="fill:none;stroke:#33323F;stroke-width:2;stroke-miterlimit:10;" x1="-160" x2="-157" y1="144" y2="149"/><line style="fill:none;stroke:#33323F;stroke-width:2;stroke-miterlimit:10;" x1="-163" x2="-160" y1="149" y2="144"/></g><g><polyline points="-54,141 -56,153 -64,146 -58,140   " style="fill:none;stroke:#33323F;stroke-width:2;stroke-miterlimit:10;"/><polyline points="-74,141 -72,153 -64,146 -70,140   " style="fill:none;stroke:#33323F;stroke-width:2;stroke-miterlimit:10;"/><path d="M-82,144c-0.047,0-0.091-0.012-0.137-0.014    c-1.345,1.296-2.393,2.91-2.972,4.763L-88,158h24h24l-2.891-9.251c-0.579-1.853-1.626-3.466-2.972-4.763    C-45.909,143.988-45.953,144-46,144" style="fill:none;stroke:#33323F;stroke-width:2;stroke-miterlimit:10;"/><line style="fill:none;stroke:#33323F;stroke-width:2;stroke-miterlimit:10;" x1="-70" x2="-74" y1="140" y2="140.615"/><line style="fill:none;stroke:#33323F;stroke-width:2;stroke-miterlimit:10;" x1="-54" x2="-58" y1="140.615" y2="140"/><line style="fill:none;stroke:#33323F;stroke-width:2;stroke-miterlimit:10;" x1="-77" x2="-78" y1="150" y2="158"/><line style="fill:none;stroke:#33323F;stroke-width:2;stroke-miterlimit:10;" x1="-50" x2="-51" y1="158" y2="150"/><line style="fill:none;stroke:#33323F;stroke-width:2;stroke-miterlimit:10;" x1="-70" x2="-70" y1="140" y2="138"/><line style="fill:none;stroke:#33323F;stroke-width:2;stroke-miterlimit:10;" x1="-58" x2="-58" y1="140" y2="138"/><path d="M-77,114v12c0,7.18,5.82,13,13,13h0    c7.18,0,13-5.82,13-13v-12" style="fill:none;stroke:#33323F;stroke-width:2;stroke-miterlimit:10;"/><path d="M-51,120L-51,120c2.209,0,4,1.791,4,4v0    c0,2.209-1.791,4-4,4h0" style="fill:none;stroke:#33323F;stroke-width:2;stroke-miterlimit:10;"/><path d="M-77,120L-77,120c-2.209,0-4,1.791-4,4v0    c0,2.209,1.791,4,4,4h0" style="fill:none;stroke:#33323F;stroke-width:2;stroke-miterlimit:10;"/><circle cx="-70.5" cy="120.5" r="1.5" style="fill:#33323F;"/><circle cx="-57.5" cy="120.5" r="1.5" style="fill:#33323F;"/><polyline points="-68,158 -67,154 -69,151   " style="fill:none;stroke:#33323F;stroke-width:2;stroke-miterlimit:10;"/><polyline points="-59,151 -61,154 -60,158   " style="fill:none;stroke:#33323F;stroke-width:2;stroke-miterlimit:10;"/><path d="M-68,129v0.997c0,1.106,0.897,2.003,2.003,2.003    h3.993c1.106,0,2.003-0.897,2.003-2.003V129" style="fill:none;stroke:#33323F;stroke-width:2;stroke-miterlimit:10;"/><line style="fill:none;stroke:#33323F;stroke-width:2;stroke-miterlimit:10;" x1="-78" x2="-78" y1="138" y2="144"/><path d="M-82,144h8v-6h-8c-1.657,0-3,1.343-3,3l0,0    C-85,142.657-83.657,144-82,144z" style="fill:none;stroke:#33323F;stroke-width:2;stroke-miterlimit:10;"/><line style="fill:none;stroke:#33323F;stroke-width:2;stroke-miterlimit:10;" x1="-50" x2="-50" y1="138" y2="144"/><path d="M-46,144h-8v-6h8c1.657,0,3,1.343,3,3l0,0    C-43,142.657-44.343,144-46,144z" style="fill:none;stroke:#33323F;stroke-width:2;stroke-miterlimit:10;"/><path d="M-71,109h7h13v5c0,0,0,4-5,4c-4,0-5-1-8-1    s-4,1-8,1c-5,0-5-4-5-4v-5h4" style="fill:none;stroke:#33323F;stroke-width:2;stroke-miterlimit:10;"/><polyline points="-51,114 -64,114 -77,114   " style="fill:none;stroke:#33323F;stroke-width:2;stroke-miterlimit:10;"/><path d="M-81,124v-7c0-1.657,1.343-3,3-3h1" style="fill:none;stroke:#33323F;stroke-width:2;stroke-miterlimit:10;"/><path d="M-47,124v-7c0-1.657-1.343-3-3-3h-1" style="fill:none;stroke:#33323F;stroke-width:2;stroke-miterlimit:10;"/><path d="M-47,119.669c1.268-2.011,2-4.27,2-6.669    c0-8.284-8.507-15-19-15s-19,6.716-19,15c0,2.399,0.732,4.658,2,6.669" style="fill:none;stroke:#33323F;stroke-width:2;stroke-miterlimit:10;"/><circle cx="-64" cy="105" r="3" style="fill:none;stroke:#33323F;stroke-width:2;stroke-miterlimit:10;"/><path d="M-61,105L-61,105c1.105,0,2-0.895,2-2l0,0h6l0,0" style="fill:none;stroke:#33323F;stroke-width:2;stroke-miterlimit:10;"/><line style="fill:none;stroke:#33323F;stroke-width:2;stroke-miterlimit:10;" x1="-58" x2="-54" y1="106" y2="106"/><path d="M-67,105L-67,105c-1.105,0-2-0.895-2-2l0,0h-6v0" style="fill:none;stroke:#33323F;stroke-width:2;stroke-miterlimit:10;"/><line style="fill:none;stroke:#33323F;stroke-width:2;stroke-miterlimit:10;" x1="-70" x2="-74" y1="106" y2="106"/></g><g><path d="M32,144c5,0,6-4,6-4l6.011,0.925    c4.277,0.658,7.807,3.694,9.098,7.824L56,158H32H8l2.891-9.251c1.291-4.131,4.82-7.166,9.098-7.824L26,140C26,140,27,144,32,144z" style="fill:none;stroke:#33323F;stroke-width:2;stroke-miterlimit:10;"/><line style="fill:none;stroke:#33323F;stroke-width:2;stroke-miterlimit:10;" x1="19" x2="18" y1="150" y2="158"/><line style="fill:none;stroke:#33323F;stroke-width:2;stroke-miterlimit:10;" x1="46" x2="45" y1="158" y2="150"/><line style="fill:none;stroke:#33323F;stroke-width:2;stroke-miterlimit:10;" x1="26" x2="26" y1="140" y2="138"/><line style="fill:none;stroke:#33323F;stroke-width:2;stroke-miterlimit:10;" x1="38" x2="38" y1="140" y2="138"/><path d="M15,124.816c-0.314,0.112-0.647,0.184-1,0.184    c-1.657,0-3-1.343-3-3c0-0.137,0.023-0.268,0.04-0.4C9.253,120.837,8,119.066,8,117c0-1.275,0.492-2.425,1.277-3.308    C8.48,112.673,8,111.394,8,110c0-3.159,2.443-5.742,5.542-5.977c0.544-0.948,1.453-1.654,2.547-1.909    C16.509,99.777,18.542,98,21,98c1.312,0,2.497,0.517,3.389,1.344C24.883,99.126,25.426,99,26,99c1.862,0,3.413,1.278,3.859,3" style="fill:none;stroke:#33323F;stroke-width:2;stroke-miterlimit:10;"/><path d="M45,120L45,120c2.209,0,4,1.791,4,4v0    c0,2.209-1.791,4-4,4h0" style="fill:none;stroke:#33323F;stroke-width:2;stroke-miterlimit:10;"/><path d="M19,120L19,120c-2.209,0-4,1.791-4,4v0    c0,2.209,1.791,4,4,4h0" style="fill:none;stroke:#33323F;stroke-width:2;stroke-miterlimit:10;"/><circle cx="25.5" cy="120.5" r="1.5" style="fill:#33323F;"/><circle cx="38.5" cy="120.5" r="1.5" style="fill:#33323F;"/><path d="M49,124.816c0.314,0.112,0.647,0.184,1,0.184    c1.657,0,3-1.343,3-3c0-0.137-0.023-0.268-0.04-0.4c1.787-0.762,3.04-2.534,3.04-4.6c0-1.275-0.492-2.425-1.277-3.308    C55.52,112.673,56,111.394,56,110c0-3.159-2.443-5.742-5.542-5.977c-0.544-0.948-1.453-1.654-2.547-1.909    C47.491,99.777,45.458,98,43,98c-1.312,0-2.497,0.517-3.389,1.344C39.117,99.126,38.574,99,38,99c-1.862,0-3.413,1.278-3.859,3" style="fill:none;stroke:#33323F;stroke-width:2;stroke-miterlimit:10;"/><path d="M42,116.5c0-0.546,0.136-1.056,0.359-1.517    C41.532,114.25,41,113.192,41,112c0-0.047,0.012-0.091,0.014-0.137C39.284,111.422,38,109.867,38,108    c0-1.41,0.733-2.644,1.835-3.356C37.655,102.992,34.947,102,32,102s-5.655,0.992-7.835,2.644C25.267,105.356,26,106.59,26,108    c0,1.867-1.284,3.422-3.014,3.863C22.988,111.909,23,111.953,23,112c0,1.192-0.532,2.25-1.359,2.983    C21.864,115.444,22,115.954,22,116.5c0,1.762-1.306,3.205-3,3.45V126c0,7.18,5.82,13,13,13s13-5.82,13-13v-6.05    C43.306,119.705,42,118.262,42,116.5z" style="fill:none;stroke:#33323F;stroke-width:2;stroke-miterlimit:10;"/><line style="fill:none;stroke:#33323F;stroke-width:2;stroke-miterlimit:10;" x1="27" x2="37" y1="130" y2="130"/><line style="fill:none;stroke:#33323F;stroke-width:2;stroke-miterlimit:10;" x1="42" x2="35" y1="153" y2="153"/></g><g><polyline points="128,146 123,150 119,143   " style="fill:none;stroke:#33323F;stroke-width:2;stroke-miterlimit:10;"/><path d="M140.011,140.925    c4.277,0.658,7.807,3.694,9.098,7.824L152,158h-24h-24l2.891-9.251c1.291-4.131,4.82-7.166,9.098-7.824" style="fill:none;stroke:#33323F;stroke-width:2;stroke-miterlimit:10;"/><line style="fill:none;stroke:#33323F;stroke-width:2;stroke-miterlimit:10;" x1="115" x2="114" y1="150" y2="158"/><line style="fill:none;stroke:#33323F;stroke-width:2;stroke-miterlimit:10;" x1="142" x2="141" y1="158" y2="150"/><path d="M138.903,133.065    C140.225,131.03,141,128.607,141,126v-6" style="fill:none;stroke:#33323F;stroke-width:2;stroke-miterlimit:10;"/><path d="M115,123v3c0,2.619,0.781,5.053,2.114,7.094" style="fill:none;stroke:#33323F;stroke-width:2;stroke-miterlimit:10;"/><path d="M141,120L141,120c2.209,0,4,1.791,4,4v0    c0,2.209-1.791,4-4,4l0,0" style="fill:none;stroke:#33323F;stroke-width:2;stroke-miterlimit:10;"/><path d="M111,124L111,124c0,2.209,1.791,4,4,4h0" style="fill:none;stroke:#33323F;stroke-width:2;stroke-miterlimit:10;"/><path d="M115,120" style="fill:none;stroke:#33323F;stroke-width:2;stroke-miterlimit:10;"/><circle cx="134.5" cy="120.5" r="1.5" style="fill:#33323F;"/><path d="M115,139c0,0,1,4,6,4    c4,0,5-4,5-4" style="fill:none;stroke:#33323F;stroke-width:2;stroke-linejoin:round;stroke-miterlimit:10;"/><path d="M135,136c0,0,0,3,4,3    c6,0,6-7,6-7s-1,2-4,2c-4,0-4-8-13-8s-9,8-13,8c-3,0-4-2-4-2s0,7,6,7c4,0,4-3,4-3" style="fill:none;stroke:#33323F;stroke-width:2;stroke-linejoin:round;stroke-miterlimit:10;"/><path d="M141,139c0,0-1,4-6,4    c-4,0-5-4-5-4" style="fill:none;stroke:#33323F;stroke-width:2;stroke-linejoin:round;stroke-miterlimit:10;"/><path d="M133,143c0,0-1,3-5,3    s-5-3-5-3" style="fill:none;stroke:#33323F;stroke-width:2;stroke-linejoin:round;stroke-miterlimit:10;"/><path d="M130,133h-4c-1.105,0-2-0.895-2-2l0,0    c0-1.105,0.895-2,2-2h4c1.105,0,2,0.895,2,2l0,0C132,132.105,131.105,133,130,133z" style="fill:none;stroke:#33323F;stroke-width:2;stroke-miterlimit:10;"/><path d="M145,124v-12.929c0-4.057-2.983-7.497-7-8.071    l0,0c0,0-2-5-10-5c-16,0-17,15-22,15c-2,0-3-1-3-1s-1,12,10,12s22-13,22-13s6,1,6,9" style="fill:none;stroke:#33323F;stroke-width:2;stroke-miterlimit:10;"/><polyline points="128,146 133,150 137,143   " style="fill:none;stroke:#33323F;stroke-width:2;stroke-miterlimit:10;"/></g><g><path d="M207,124v-9c0-9.389,7.611-17,17-17h1.292    c4.111,0,7.87,2.323,9.708,6v0l0,0c3.677,1.839,6,5.597,6,9.708V124" style="fill:none;stroke:#33323F;stroke-width:2;stroke-miterlimit:10;"/><path d="M224,144c5,0,6-4,6-4l6.011,0.925    c4.277,0.658,7.807,3.694,9.098,7.824L248,158h-24h-24l2.891-9.251c1.291-4.131,4.82-7.166,9.098-7.824L218,140    C218,140,219,144,224,144z" style="fill:none;stroke:#33323F;stroke-width:2;stroke-miterlimit:10;"/><line style="fill:none;stroke:#33323F;stroke-width:2;stroke-miterlimit:10;" x1="211" x2="210" y1="150" y2="158"/><line style="fill:none;stroke:#33323F;stroke-width:2;stroke-miterlimit:10;" x1="238" x2="237" y1="158" y2="150"/><line style="fill:none;stroke:#33323F;stroke-width:2;stroke-miterlimit:10;" x1="218" x2="218" y1="140" y2="138"/><line style="fill:none;stroke:#33323F;stroke-width:2;stroke-miterlimit:10;" x1="230" x2="230" y1="140" y2="138"/><path d="M237,117.251V126c0,7.18-5.82,13-13,13h0    c-7.18,0-13-5.82-13-13v-8.749c0-1.379,0.779-2.641,2.013-3.257l0,0c1.307-0.653,2.747-0.993,4.208-0.993l0,0    c0.518,0,1.036,0.043,1.547,0.128L224,114l5.232-0.872c0.511-0.085,1.029-0.128,1.547-0.128l0,0c1.461,0,2.901,0.34,4.208,0.993    l0,0C236.221,114.61,237,115.871,237,117.251z" style="fill:none;stroke:#33323F;stroke-width:2;stroke-miterlimit:10;"/><path d="M237,120L237,120c2.209,0,4,1.791,4,4v0    c0,2.209-1.791,4-4,4l0,0" style="fill:none;stroke:#33323F;stroke-width:2;stroke-miterlimit:10;"/><path d="M211,120L211,120c-2.209,0-4,1.791-4,4v0    c0,2.209,1.791,4,4,4l0,0" style="fill:none;stroke:#33323F;stroke-width:2;stroke-miterlimit:10;"/><path d="M218.26,130c1.265,1.812,3.362,3,5.74,3    s4.475-1.188,5.74-3" style="fill:none;stroke:#33323F;stroke-width:2;stroke-miterlimit:10;"/><path d="M231,124h-2c-1.657,0-3-1.343-3-3v-2    c0-0.552,0.448-1,1-1h6c0.552,0,1,0.448,1,1v2C234,122.657,232.657,124,231,124z" style="fill:none;stroke:#33323F;stroke-width:2;stroke-miterlimit:10;"/><line style="fill:none;stroke:#33323F;stroke-width:2;stroke-miterlimit:10;" x1="234" x2="237" y1="119" y2="119"/><path d="M217,124h2c1.657,0,3-1.343,3-3v-2    c0-0.552-0.448-1-1-1h-6c-0.552,0-1,0.448-1,1v2C214,122.657,215.343,124,217,124z" style="fill:none;stroke:#33323F;stroke-width:2;stroke-miterlimit:10;"/><line style="fill:none;stroke:#33323F;stroke-width:2;stroke-miterlimit:10;" x1="214" x2="211" y1="119" y2="119"/><line style="fill:none;stroke:#33323F;stroke-width:2;stroke-miterlimit:10;" x1="222" x2="226" y1="120" y2="120"/><path d="M235,104c0,0,2-2,2-5" style="fill:none;stroke:#33323F;stroke-width:2;stroke-miterlimit:10;"/><path d="M235,104c0,0,2-1,6-1" style="fill:none;stroke:#33323F;stroke-width:2;stroke-miterlimit:10;"/><line style="fill:none;stroke:#33323F;stroke-width:2;stroke-miterlimit:10;" x1="222" x2="222" y1="139" y2="144"/><line style="fill:none;stroke:#33323F;stroke-width:2;stroke-miterlimit:10;" x1="226" x2="226" y1="139" y2="144"/></g><g><path d="M303,124v-9c0-9.389,7.611-17,17-17h2.675    c3.777,0,7.13,2.417,8.325,6v0l0,0c3.583,1.194,6,4.548,6,8.325V124" style="fill:none;stroke:#33323F;stroke-width:2;stroke-miterlimit:10;"/><path d="M326,140l6.011,0.925    c4.277,0.658,7.807,3.694,9.098,7.824L344,158h-24h-24l2.891-9.251c1.291-4.131,4.82-7.166,9.098-7.824L314,140" style="fill:none;stroke:#33323F;stroke-width:2;stroke-miterlimit:10;"/><line style="fill:none;stroke:#33323F;stroke-width:2;stroke-miterlimit:10;" x1="307" x2="306" y1="150" y2="158"/><line style="fill:none;stroke:#33323F;stroke-width:2;stroke-miterlimit:10;" x1="334" x2="333" y1="158" y2="150"/><path d="M325.96,137.545    c4.179-2.162,7.04-6.516,7.04-11.545v-8l-3-3l-0.665-3.325c-0.195-0.974-1.05-1.675-2.043-1.675c-0.194,0-0.386,0.027-0.573,0.08    L320,112l-6.719-1.92c-0.186-0.053-0.379-0.08-0.573-0.08c-0.993,0-1.849,0.701-2.043,1.675L310,115l-3,3v8    c0,5.03,2.861,9.383,7.04,11.545" style="fill:none;stroke:#33323F;stroke-width:2;stroke-miterlimit:10;"/><path d="M333,120L333,120c2.209,0,4,1.791,4,4v0    c0,2.209-1.791,4-4,4l0,0" style="fill:none;stroke:#33323F;stroke-width:2;stroke-miterlimit:10;"/><path d="M307,120L307,120c-2.209,0-4,1.791-4,4v0    c0,2.209,1.791,4,4,4l0,0" style="fill:none;stroke:#33323F;stroke-width:2;stroke-miterlimit:10;"/><circle cx="313.5" cy="120.5" r="1.5" style="fill:#33323F;"/><circle cx="326.5" cy="120.5" r="1.5" style="fill:#33323F;"/><path d="M327,126c0,3.866-3.134,7-7,7s-7-3.134-7-7" style="fill:none;stroke:#33323F;stroke-width:2;stroke-miterlimit:10;"/><path d="M309,141c0,0,4,8,11,13c7-5,11-13,11-13" style="fill:none;stroke:#33323F;stroke-width:2;stroke-miterlimit:10;"/><path d="M320,145l2-3l2,1l0.336-0.504    c1.085-1.628,1.664-3.54,1.664-5.496l0,0l-6-1l-6,1l0,0c0,1.956,0.579,3.869,1.664,5.496L316,143l2-1L320,145z" style="fill:none;stroke:#33323F;stroke-width:2;stroke-miterlimit:10;"/><line style="fill:none;stroke:#33323F;stroke-width:2;stroke-miterlimit:10;" x1="342" x2="334" y1="152" y2="154"/><line style="fill:none;stroke:#33323F;stroke-width:2;stroke-miterlimit:10;" x1="307" x2="298" y1="154" y2="152"/></g><g><path d="M-177,220v-9c0-9.389,7.611-17,17-17h0    c9.389,0,17,7.611,17,17v9" style="fill:none;stroke:#33323F;stroke-width:2;stroke-miterlimit:10;"/><line style="fill:none;stroke:#33323F;stroke-width:2;stroke-miterlimit:10;" x1="-150" x2="-150" y1="240" y2="248"/><line style="fill:none;stroke:#33323F;stroke-width:2;stroke-miterlimit:10;" x1="-154" x2="-154" y1="240" y2="248"/><path d="M-176.145,238.444    c-2.326,1.407-4.124,3.617-4.964,6.305L-184,254h24h24l-2.891-9.251c-0.84-2.688-2.638-4.898-4.964-6.305" style="fill:none;stroke:#33323F;stroke-width:2;stroke-miterlimit:10;"/><line style="fill:none;stroke:#33323F;stroke-width:2;stroke-miterlimit:10;" x1="-173" x2="-174" y1="246" y2="254"/><line style="fill:none;stroke:#33323F;stroke-width:2;stroke-miterlimit:10;" x1="-146" x2="-147" y1="254" y2="246"/><line style="fill:none;stroke:#33323F;stroke-width:2;stroke-miterlimit:10;" x1="-173" x2="-147" y1="248" y2="248"/><line style="fill:none;stroke:#33323F;stroke-width:2;stroke-miterlimit:10;" x1="-166" x2="-166" y1="240" y2="248"/><line style="fill:none;stroke:#33323F;stroke-width:2;stroke-miterlimit:10;" x1="-170" x2="-170" y1="240" y2="248"/><path d="M-147,240h-26c-2.209,0-4-1.791-4-4v-27    c0-3.314,2.686-6,6-6h22c3.314,0,6,2.686,6,6v27C-143,238.209-144.791,240-147,240z" style="fill:none;stroke:#33323F;stroke-width:2;stroke-miterlimit:10;"/><path d="M-151,223h-18c-0.552,0-1-0.448-1-1v-10    c0-0.552,0.448-1,1-1h18c0.552,0,1,0.448,1,1v10C-150,222.552-150.448,223-151,223z" style="fill:none;stroke:#33323F;stroke-width:2;stroke-miterlimit:10;"/></g><g><line style="fill:none;stroke:#33323F;stroke-width:2;stroke-miterlimit:10;" x1="-81" x2="-47" y1="198" y2="198"/><line style="fill:none;stroke:#33323F;stroke-width:2;stroke-miterlimit:10;" x1="-47" x2="-81" y1="203" y2="203"/><line style="fill:none;stroke:#33323F;stroke-width:2;stroke-miterlimit:10;" x1="-47" x2="-47" y1="207" y2="220"/><line style="fill:none;stroke:#33323F;stroke-width:2;stroke-miterlimit:10;" x1="-81" x2="-81" y1="220" y2="207"/><path d="M-64,240c5,0,6-4,6-4l6.011,0.925    c4.277,0.658,7.807,3.694,9.098,7.824L-40,254h-24h-24l2.891-9.251c1.291-4.131,4.82-7.166,9.098-7.824L-70,236    C-70,236-69,240-64,240z" style="fill:none;stroke:#33323F;stroke-width:2;stroke-miterlimit:10;"/><line style="fill:none;stroke:#33323F;stroke-width:2;stroke-miterlimit:10;" x1="-77" x2="-78" y1="246" y2="254"/><line style="fill:none;stroke:#33323F;stroke-width:2;stroke-miterlimit:10;" x1="-50" x2="-51" y1="254" y2="246"/><line style="fill:none;stroke:#33323F;stroke-width:2;stroke-miterlimit:10;" x1="-70" x2="-70" y1="236" y2="234"/><line style="fill:none;stroke:#33323F;stroke-width:2;stroke-miterlimit:10;" x1="-58" x2="-58" y1="236" y2="234"/><path d="M-77,211v11c0,7.18,5.82,13,13,13h0    c7.18,0,13-5.82,13-13v-11" style="fill:none;stroke:#33323F;stroke-width:2;stroke-miterlimit:10;"/><path d="M-51,216L-51,216c2.209,0,4,1.791,4,4l0,0    c0,2.209-1.791,4-4,4h0" style="fill:none;stroke:#33323F;stroke-width:2;stroke-miterlimit:10;"/><path d="M-77,216L-77,216c-2.209,0-4,1.791-4,4l0,0    c0,2.209,1.791,4,4,4h0" style="fill:none;stroke:#33323F;stroke-width:2;stroke-miterlimit:10;"/><circle cx="-70.5" cy="216.5" r="1.5" style="fill:#33323F;"/><circle cx="-57.5" cy="216.5" r="1.5" style="fill:#33323F;"/><path d="M-57,222c0,3.866-3.134,7-7,7s-7-3.134-7-7" style="fill:none;stroke:#33323F;stroke-width:2;stroke-miterlimit:10;"/><path d="M-49,194h-30c-1.105,0-2,0.895-2,2v12    c0,0,3,5,17,5s17-5,17-5v-12C-47,194.895-47.895,194-49,194z" style="fill:none;stroke:#33323F;stroke-width:2;stroke-miterlimit:10;"/><line style="fill:none;stroke:#33323F;stroke-width:2;stroke-miterlimit:10;" x1="-81" x2="-47" y1="207" y2="207"/><polyline points="-64,240 -72,246 -72,254   " style="fill:none;stroke:#33323F;stroke-width:2;stroke-miterlimit:10;"/><line style="fill:none;stroke:#33323F;stroke-width:2;stroke-miterlimit:10;" x1="-66" x2="-65" y1="235" y2="240"/><line style="fill:none;stroke:#33323F;stroke-width:2;stroke-miterlimit:10;" x1="-62" x2="-63" y1="234.944" y2="240"/><line style="fill:none;stroke:#33323F;stroke-width:2;stroke-miterlimit:10;" x1="-68" x2="-68" y1="247" y2="254"/></g><g><polyline points="42,237 40,249 32,242 38,236   " style="fill:none;stroke:#33323F;stroke-width:2;stroke-miterlimit:10;"/><polyline points="22,237 24,249 32,242 26,236   " style="fill:none;stroke:#33323F;stroke-width:2;stroke-miterlimit:10;"/><path d="M38,236l6.011,0.925    c4.277,0.658,7.807,3.694,9.098,7.824L56,254H32H8l2.891-9.251c1.291-4.131,4.82-7.166,9.098-7.824L26,236" style="fill:none;stroke:#33323F;stroke-width:2;stroke-miterlimit:10;"/><line style="fill:none;stroke:#33323F;stroke-width:2;stroke-miterlimit:10;" x1="19" x2="18" y1="246" y2="254"/><line style="fill:none;stroke:#33323F;stroke-width:2;stroke-miterlimit:10;" x1="46" x2="45" y1="254" y2="246"/><line style="fill:none;stroke:#33323F;stroke-width:2;stroke-miterlimit:10;" x1="26" x2="26" y1="236" y2="234"/><line style="fill:none;stroke:#33323F;stroke-width:2;stroke-miterlimit:10;" x1="38" x2="38" y1="236" y2="234"/><path d="M19,210v12c0,7.18,5.82,13,13,13h0    c7.18,0,13-5.82,13-13v-12" style="fill:none;stroke:#33323F;stroke-width:2;stroke-miterlimit:10;"/><path d="M45,216L45,216c2.209,0,4,1.791,4,4l0,0    c0,2.209-1.791,4-4,4h0" style="fill:none;stroke:#33323F;stroke-width:2;stroke-miterlimit:10;"/><path d="M19,216L19,216c-2.209,0-4,1.791-4,4l0,0    c0,2.209,1.791,4,4,4h0" style="fill:none;stroke:#33323F;stroke-width:2;stroke-miterlimit:10;"/><circle cx="25.5" cy="216.5" r="1.5" style="fill:#33323F;"/><circle cx="38.5" cy="216.5" r="1.5" style="fill:#33323F;"/><polyline points="28,254 29,250 27,247   " style="fill:none;stroke:#33323F;stroke-width:2;stroke-miterlimit:10;"/><polyline points="37,247 35,250 36,254   " style="fill:none;stroke:#33323F;stroke-width:2;stroke-miterlimit:10;"/><path d="M28,225v0.997c0,1.106,0.897,2.003,2.003,2.003    h3.993c1.106,0,2.003-0.897,2.003-2.003V225" style="fill:none;stroke:#33323F;stroke-width:2;stroke-miterlimit:10;"/><path d="M19,205v5c0,0,0,4,5,4c4,0,5-1,8-1s4,1,8,1    c5,0,5-4,5-4v-5H32H19z" style="fill:none;stroke:#33323F;stroke-width:2;stroke-miterlimit:10;"/><polyline points="45,210 32,210 19,210   " style="fill:none;stroke:#33323F;stroke-width:2;stroke-miterlimit:10;"/><path d="M15,220v-7c0-1.657,1.343-3,3-3h1" style="fill:none;stroke:#33323F;stroke-width:2;stroke-miterlimit:10;"/><path d="M49,220v-7c0-1.657-1.343-3-3-3h-1" style="fill:none;stroke:#33323F;stroke-width:2;stroke-miterlimit:10;"/><path d="M49,215.669c1.268-2.011,2-4.27,2-6.669    c0-8.284-8.507-15-19-15s-19,6.716-19,15c0,2.399,0.732,4.658,2,6.669" style="fill:none;stroke:#33323F;stroke-width:2;stroke-miterlimit:10;"/></g><g><path d="M123.714,238.571    c0.912,0.776,2.27,1.429,4.286,1.429s3.374-0.653,4.286-1.429" style="fill:none;stroke:#33323F;stroke-width:2;stroke-miterlimit:10;"/><path d="M128,245l6-9l6.011,0.925    c4.277,0.658,7.807,3.694,9.098,7.824L152,254h-24h-24l2.891-9.251c1.291-4.131,4.82-7.166,9.098-7.824L122,236L128,245z" style="fill:none;stroke:#33323F;stroke-width:2;stroke-miterlimit:10;"/><line style="fill:none;stroke:#33323F;stroke-width:2;stroke-miterlimit:10;" x1="115" x2="114" y1="246" y2="254"/><line style="fill:none;stroke:#33323F;stroke-width:2;stroke-miterlimit:10;" x1="142" x2="141" y1="254" y2="246"/><line style="fill:none;stroke:#33323F;stroke-width:2;stroke-miterlimit:10;" x1="122" x2="122" y1="236" y2="234"/><line style="fill:none;stroke:#33323F;stroke-width:2;stroke-miterlimit:10;" x1="134" x2="134" y1="236" y2="234"/><path d="M115,213v9c0,7.18,5.82,13,13,13h0    c7.18,0,13-5.82,13-13v-9" style="fill:none;stroke:#33323F;stroke-width:2;stroke-miterlimit:10;"/><path d="M138,204h4l0,0c1.979,4.619,3,9.591,3,14.616V220    " style="fill:none;stroke:#33323F;stroke-width:2;stroke-miterlimit:10;"/><path d="M111,220v-1.384c0-5.025,1.021-9.997,3-14.616    l0,0h22" style="fill:none;stroke:#33323F;stroke-width:2;stroke-miterlimit:10;"/><path d="M141,216L141,216c2.209,0,4,1.791,4,4l0,0    c0,2.209-1.791,4-4,4l0,0" style="fill:none;stroke:#33323F;stroke-width:2;stroke-miterlimit:10;"/><path d="M115,216L115,216c-2.209,0-4,1.791-4,4l0,0    c0,2.209,1.791,4,4,4h0" style="fill:none;stroke:#33323F;stroke-width:2;stroke-miterlimit:10;"/><circle cx="121.5" cy="216.5" r="1.5" style="fill:#33323F;"/><circle cx="134.5" cy="216.5" r="1.5" style="fill:#33323F;"/><path d="M135,222c0,3.866-3.134,7-7,7    c-3.866,0-7-3.134-7-7" style="fill:none;stroke:#33323F;stroke-width:2;stroke-miterlimit:10;"/><path d="M143.666,208.794l5.465-2.082    c1.125-0.429,1.869-1.508,1.869-2.712c0-1.204-0.744-2.283-1.869-2.712l-17.262-6.576C130.633,194.241,129.322,194,128,194    s-2.633,0.241-3.869,0.712l-17.262,6.576C105.744,201.717,105,202.796,105,204c0,1.204,0.744,2.283,1.869,2.712l5.465,2.082" style="fill:none;stroke:#33323F;stroke-width:2;stroke-miterlimit:10;"/><line style="fill:none;stroke:#33323F;stroke-width:2;stroke-miterlimit:10;" x1="112" x2="144" y1="213" y2="213"/><polyline points="118,237 125,248 125,254   " style="fill:none;stroke:#33323F;stroke-width:2;stroke-miterlimit:10;"/><polyline points="138,237 131,248 131,254   " style="fill:none;stroke:#33323F;stroke-width:2;stroke-miterlimit:10;"/><line style="fill:none;stroke:#33323F;stroke-width:2;stroke-miterlimit:10;" x1="115" x2="125" y1="249" y2="249"/><line style="fill:none;stroke:#33323F;stroke-width:2;stroke-miterlimit:10;" x1="131" x2="137" y1="249" y2="249"/><line style="fill:none;stroke:#33323F;stroke-width:2;stroke-miterlimit:10;" x1="139" x2="142" y1="249" y2="249"/><line style="fill:none;stroke:#33323F;stroke-width:2;stroke-miterlimit:10;" x1="105" x2="105" y1="204" y2="217"/><path d="M102,222v-3.346c0-0.914,0.741-1.654,1.654-1.654    h2.692c0.914,0,1.654,0.741,1.654,1.654V222" style="fill:none;stroke:#33323F;stroke-width:2;stroke-miterlimit:10;"/><line style="fill:none;stroke:#33323F;stroke-width:2;stroke-miterlimit:10;" x1="105" x2="105" y1="222" y2="217"/></g><g><path d="M233.421,230.941    c1.808,0.739,3.961,0.376,5.429-1.092c1.089-1.089,1.548-2.554,1.422-3.977c1.363-0.428,2.541-1.413,3.13-2.836    c0.589-1.423,0.453-2.952-0.208-4.219C244.289,217.901,245,216.54,245,215s-0.711-2.901-1.807-3.818    c0.661-1.267,0.797-2.796,0.208-4.219c-0.589-1.423-1.767-2.408-3.13-2.836c0.126-1.423-0.333-2.888-1.422-3.977    s-2.554-1.548-3.977-1.422c-0.428-1.363-1.413-2.541-2.836-3.13c-1.423-0.589-2.952-0.453-4.219,0.208    C226.901,194.711,225.54,194,224,194s-2.901,0.711-3.818,1.807c-1.267-0.661-2.796-0.798-4.219-0.208    c-1.423,0.589-2.408,1.767-2.836,3.13c-1.423-0.126-2.888,0.333-3.977,1.422s-1.548,2.554-1.422,3.977    c-1.363,0.428-2.541,1.413-3.13,2.836c-0.589,1.423-0.453,2.952,0.208,4.219C203.711,212.099,203,213.46,203,215    s0.711,2.901,1.807,3.818c-0.661,1.266-0.797,2.795-0.208,4.219c0.589,1.423,1.767,2.408,3.13,2.836    c-0.126,1.423,0.333,2.888,1.422,3.977c1.468,1.468,3.621,1.831,5.429,1.092H233.421z" style="fill:none;stroke:#33323F;stroke-width:2;stroke-miterlimit:10;"/><path d="M209,237.823    c-2.884,1.319-5.135,3.809-6.109,6.926L200,254h24h24l-2.891-9.251c-0.974-3.117-3.225-5.608-6.109-6.926" style="fill:none;stroke:#33323F;stroke-width:2;stroke-miterlimit:10;"/><line style="fill:none;stroke:#33323F;stroke-width:2;stroke-miterlimit:10;" x1="211" x2="210" y1="246" y2="254"/><line style="fill:none;stroke:#33323F;stroke-width:2;stroke-miterlimit:10;" x1="238" x2="237" y1="254" y2="246"/><line style="fill:none;stroke:#33323F;stroke-width:2;stroke-miterlimit:10;" x1="218" x2="218" y1="236" y2="234"/><line style="fill:none;stroke:#33323F;stroke-width:2;stroke-miterlimit:10;" x1="230" x2="230" y1="236" y2="234"/><path d="M237,216L237,216c2.209,0,4,1.791,4,4l0,0    c0,2.209-1.791,4-4,4l0,0" style="fill:none;stroke:#33323F;stroke-width:2;stroke-miterlimit:10;"/><path d="M211,216L211,216c-2.209,0-4,1.791-4,4l0,0    c0,2.209,1.791,4,4,4l0,0" style="fill:none;stroke:#33323F;stroke-width:2;stroke-miterlimit:10;"/><circle cx="217.5" cy="216.5" r="1.5" style="fill:#33323F;"/><circle cx="230.5" cy="216.5" r="1.5" style="fill:#33323F;"/><circle cx="224" cy="222" r="3" style="fill:none;stroke:#33323F;stroke-width:2;stroke-miterlimit:10;"/><path d="M232.346,211.794    C231.915,211.914,231.469,212,231,212c-1.132,0-2.164-0.39-3.002-1.025C227.086,212.198,225.642,213,224,213    s-3.086-0.802-3.998-2.025C219.164,211.61,218.132,212,217,212c-0.469,0-0.915-0.086-1.346-0.206    C214.932,213.666,213.127,215,211,215v7c0,7.18,5.82,13,13,13c7.18,0,13-5.82,13-13v-7    C234.873,215,233.068,213.666,232.346,211.794z" style="fill:none;stroke:#33323F;stroke-width:2;stroke-miterlimit:10;"/><path d="M218,225c0,0,1,4,6,4s6-4,6-4" style="fill:none;stroke:#33323F;stroke-width:2;stroke-miterlimit:10;"/><path d="M218,235h-10c0,1.63,0.979,3.027,2.378,3.65    c-0.9,1.239-1.049,2.938-0.234,4.35c0.815,1.412,2.361,2.132,3.884,1.972c-0.16,1.523,0.56,3.069,1.972,3.884    s3.111,0.666,4.35-0.234c0.623,1.399,2.02,2.378,3.65,2.378s3.027-0.979,3.65-2.378c1.239,0.9,2.938,1.049,4.35,0.234    s2.132-2.361,1.972-3.884c1.523,0.16,3.069-0.56,3.884-1.972c0.815-1.412,0.666-3.111-0.234-4.35    c1.399-0.623,2.378-2.02,2.378-3.65h-10c0,0,0,5-6,5S218,235,218,235z" style="fill:none;stroke:#33323F;stroke-width:2;stroke-miterlimit:10;"/><path d="M221,222h-2.5c-2.485,0-4.5,2.015-4.5,4.5    s2.015,4.5,4.5,4.5h11c2.485,0,4.5-2.015,4.5-4.5s-2.015-4.5-4.5-4.5H227" style="fill:none;stroke:#33323F;stroke-width:2;stroke-miterlimit:10;"/></g><g><path d="M303,220v-9c0-9.389,7.611-17,17-17h0    c9.389,0,17,7.611,17,17v9" style="fill:none;stroke:#33323F;stroke-width:2;stroke-miterlimit:10;"/><line style="fill:none;stroke:#33323F;stroke-width:2;stroke-miterlimit:10;" x1="322" x2="322" y1="235" y2="240"/><line style="fill:none;stroke:#33323F;stroke-width:2;stroke-miterlimit:10;" x1="318" x2="318" y1="240" y2="235"/><path d="M320,240c5,0,6-4,6-4l6.011,0.925    c4.277,0.658,7.807,3.694,9.098,7.824L344,254h-24h-24l2.891-9.251c1.291-4.131,4.82-7.166,9.098-7.824L314,236    C314,236,315,240,320,240z" style="fill:none;stroke:#33323F;stroke-width:2;stroke-miterlimit:10;"/><line style="fill:none;stroke:#33323F;stroke-width:2;stroke-miterlimit:10;" x1="307" x2="306" y1="246" y2="254"/><line style="fill:none;stroke:#33323F;stroke-width:2;stroke-miterlimit:10;" x1="334" x2="333" y1="254" y2="246"/><line style="fill:none;stroke:#33323F;stroke-width:2;stroke-miterlimit:10;" x1="314" x2="314" y1="236" y2="234"/><line style="fill:none;stroke:#33323F;stroke-width:2;stroke-miterlimit:10;" x1="326" x2="326" y1="236" y2="234"/><path d="M328.757,209L328.757,209    c2.343,0,4.243,1.899,4.243,4.243V222c0,7.18-5.82,13-13,13l0,0c-7.18,0-13-5.82-13-13v-5.834c0-2.301,1.865-4.166,4.166-4.166    h10.349c1.591,0,3.117-0.632,4.243-1.757l0,0C326.553,209.447,327.632,209,328.757,209z" style="fill:none;stroke:#33323F;stroke-width:2;stroke-miterlimit:10;"/><path d="M333,216L333,216c2.209,0,4,1.791,4,4l0,0    c0,2.209-1.791,4-4,4l0,0" style="fill:none;stroke:#33323F;stroke-width:2;stroke-miterlimit:10;"/><path d="M307,216L307,216c-2.209,0-4,1.791-4,4l0,0    c0,2.209,1.791,4,4,4l0,0" style="fill:none;stroke:#33323F;stroke-width:2;stroke-miterlimit:10;"/><circle cx="313.5" cy="216.5" r="1.5" style="fill:#33323F;"/><circle cx="326.5" cy="216.5" r="1.5" style="fill:#33323F;"/><path d="M327,222c0,3.866-3.134,7-7,7s-7-3.134-7-7" style="fill:none;stroke:#33323F;stroke-width:2;stroke-miterlimit:10;"/><path d="M313,236c0,0,1,8,7,11" style="fill:none;stroke:#33323F;stroke-width:2;stroke-miterlimit:10;"/><path d="M327,236c0,0-1,8-7,11" style="fill:none;stroke:#33323F;stroke-width:2;stroke-miterlimit:10;"/><line style="fill:none;stroke:#33323F;stroke-width:2;stroke-miterlimit:10;" x1="320" x2="320" y1="245" y2="254"/><line style="fill:none;stroke:#33323F;stroke-width:2;stroke-miterlimit:10;" x1="315" x2="325" y1="250" y2="250"/></g></g><g><g><path d="M39,10V7c0-1.105-0.895-2-2-2H27c-1.105,0-2,0.895-2,2v3H39z" style="fill:#EFE7E4;"/></g><g><path d="M15,47V26c0-9.389,7.611-17,17-17h0c9.389,0,17,7.611,17,17v21H15z" style="fill:#EFE7E4;"/></g><g style="opacity:0.15;"><path d="M49,44V26c0-9.389-7.611-17-17-17l9,15v20H49z" style="fill:#333333;"/></g><g><path d="M50,47h-2V26c0-8.822-7.178-16-16-16s-16,7.178-16,16v21h-2V26c0-9.925,8.075-18,18-18    s18,8.075,18,18V47z" style="fill:#33323F;"/></g><g><path d="M10.891,52.749L8,62h24h24l-2.891-9.251c-0.738-2.361-2.223-4.343-4.145-5.749H15.036    C13.114,48.406,11.629,50.388,10.891,52.749z" style="fill:#EFE7E4;"/></g><g><rect height="9" style="fill:#F9C163;" width="18" x="23" y="53"/></g><g style="opacity:0.15;"><path d="M38,53v4c0,2.761-2.239,5-5,5h0h8v-9H38z" style="fill:#333333;"/></g><g style="opacity:0.15;"><path d="M43.773,49.079c2.648,1.204,4.538,3.628,5.058,6.49L50,62h6l-2.891-9.251    c-0.738-2.361-2.223-4.343-4.145-5.749H39.2L43.773,49.079z" style="fill:#333333;"/></g><g><rect height="2" style="fill:#33323F;" transform="matrix(0.124 -0.9923 0.9923 0.124 -41.3468 69.1631)" width="8.062" x="14.469" y="57"/></g><g><rect height="8.062" style="fill:#33323F;" transform="matrix(0.9923 -0.124 0.124 0.9923 -6.8427 6.0915)" width="2" x="44.5" y="53.969"/></g><g><path d="M15.282,55.316l-1.897-0.633l0.57-1.71c0.736-2.207,2.517-3.917,4.765-4.573l0.561,1.92    c-1.618,0.473-2.9,1.701-3.428,3.286L15.282,55.316z" style="fill:#EFE7E4;"/></g><g><rect height="2" style="fill:#EFE7E4;" transform="matrix(0.3164 -0.9486 0.9486 0.3164 -45.9058 52.2987)" width="2.108" x="12.279" y="57"/></g><g><path d="M57.36,63H6.64l3.297-10.55c0.785-2.509,2.344-4.673,4.509-6.257L14.709,46h34.582l0.264,0.193    c2.165,1.584,3.724,3.748,4.509,6.257L57.36,63z M9.36,61H54.64l-2.485-7.953C51.53,51.049,50.314,49.31,48.63,48H15.37    c-1.684,1.31-2.9,3.049-3.524,5.048v-0.001L9.36,61z" style="fill:#33323F;"/></g><g><rect height="2" style="fill:#33323F;" width="5" x="44" y="42"/></g><g><rect height="2" style="fill:#33323F;" width="27" x="15" y="42"/></g><g><circle cx="32" cy="26" r="13" style="fill:#448EC6;"/></g><g style="opacity:0.15;"><path d="M32,13c-1.034,0-2.035,0.134-3,0.362C34.731,14.718,39,19.855,39,26s-4.269,11.282-10,12.638    C29.965,38.866,30.966,39,32,39c7.18,0,13-5.82,13-13S39.18,13,32,13z" style="fill:#333333;"/></g><g><path d="M32,40c-7.72,0-14-6.28-14-14s6.28-14,14-14s14,6.28,14,14S39.72,40,32,40z M32,14    c-6.617,0-12,5.383-12,12s5.383,12,12,12s12-5.383,12-12S38.617,14,32,14z" style="fill:#33323F;"/></g><g><path d="M22.255,28.221C22.086,27.474,22,26.727,22,26h2c0,0.578,0.069,1.177,0.206,1.779L22.255,28.221z" style="fill:#EFE7E4;"/></g><g><path d="M24.206,24.222l-1.95-0.443C23.296,19.199,27.303,16,32,16v2    C28.243,18,25.038,20.559,24.206,24.222z" style="fill:#EFE7E4;"/></g><g><rect height="4" style="fill:#33323F;" width="2" x="18" y="43"/></g><g><rect height="4" style="fill:#33323F;" width="2" x="44" y="43"/></g><g><path d="M40,10h-2V7c0-0.551-0.449-1-1-1H27c-0.551,0-1,0.449-1,1v3h-2V7c0-1.654,1.346-3,3-3h10    c1.654,0,3,1.346,3,3V10z" style="fill:#33323F;"/></g><g><polygon points="42,62 40,62 40,54 24,54 24,62 22,62 22,52 42,52   " style="fill:#33323F;"/></g><g><circle cx="29.5" cy="59.5" r="2.5" style="fill:#EFE7E4;"/></g><g><path d="M29.5,63c-1.93,0-3.5-1.57-3.5-3.5s1.57-3.5,3.5-3.5s3.5,1.57,3.5,3.5S31.43,63,29.5,63z M29.5,58    c-0.827,0-1.5,0.673-1.5,1.5s0.673,1.5,1.5,1.5s1.5-0.673,1.5-1.5S30.327,58,29.5,58z" style="fill:#33323F;"/></g><g><rect height="2" style="fill:#33323F;" width="3" x="35" y="56"/></g><g><rect height="7" style="fill:#EFE7E4;" width="2" x="24" y="54"/></g><g><rect height="2" style="fill:#F25A62;" width="4" x="20" y="44"/></g><g><rect height="2" style="fill:#F25A62;" width="4" x="40" y="44"/></g><g><rect height="8" style="fill:#EFE7E4;" width="2" x="18" y="34"/></g></g></svg>